<?xml version="1.0" encoding="UTF-8"?> <!-- Generator: Adobe Illustrator 26.4.1, SVG Export Plug-In . SVG Version: 6.00 Build 0) --> <svg xmlns="http://www.w3.org/2000/svg" xmlns:xlink="http://www.w3.org/1999/xlink" id="Слой_1" x="0px" y="0px" viewBox="0 0 600 600" style="enable-background:new 0 0 600 600;" xml:space="preserve"> <style type="text/css"> .st0{fill:none;stroke:#FFFFFF;stroke-width:6;stroke-miterlimit:10;} </style> <g> <path class="st0" d="M574,13.4c2.4-2.4,5.1-5.1,8.2-6.3c2.4-0.9,6.3-0.8,8.2,0.7c1.6,1.2,2,5,1.6,7.5c-0.5,3.2-2,6.3-3.4,9.3 c-60.2,121.6-120.4,243.4-180.8,365c-2.2,4.4-1.5,6.7,1.8,10c59.6,59.9,119.1,119.9,178.6,180c1.4,1.4,3.1,2.6,3.7,4.5 c0.3,2.6-0.1,5.8-1.6,7.8c-1.7,2.5-4.6,2.1-7.5,0.6c-55.6-27.6-111.2-55.1-166.9-82.7c-16.3-8-32.5-16.1-48.8-24.2 c-6.5-3.2-6.5-3.2-9.8,3c-16.9,32.1-33.7,64.3-50.7,96.3c-1.2,2.3-4.3,5.1-6.4,5.1c-2.2,0-2.9-0.9-4.9-2.9 c-0.8-0.8-2.7-4.3-3.2-5.3c-16.2-31-32.5-61.9-48.8-92.9c-3.5-6.7-3.5-6.7-10-3.4c-71.5,35.5-143,70.9-214.4,106.3 c-3.5,1.7-6.9,3.3-9.6-0.6c-2.7-3.9-1.5-7.3,1.8-10.6c60-60.4,120-120.9,180-181.3c3-3.1,3.6-5.2,1.6-9.2 C132.3,268.2,72,146.3,11.8,24.4c-1.5-3.1-2.9-6.4-3.6-9.8C7.8,12.5,8.2,9,9.6,8c1.9-1.4,5.5-2.1,7.7-1.3c3.3,1.3,6.2,3.8,8.8,6.4 c63.8,63.7,127.5,127.5,191.2,191.3c26.3,26.3,52.5,52.6,78.8,78.9c1.3,1.3,2.6,2.5,5,4.7L574,13.4z M36.6,45.2 c-0.3,0.3-0.7,0.5-1,0.8c57.6,110.7,115.2,221.4,173.5,333.3c27.5-27,54.6-53.6,80.7-79.3C205,214.7,120.8,129.9,36.6,45.2z M391.3,379.3c58.3-111.9,115.9-222.7,173.6-333.4c-0.3-0.2-0.7-0.4-1-0.6C479.6,130,395.3,214.8,310.6,300 C336.9,325.8,363.9,352.3,391.3,379.3z M382.3,394.7c-27.5-27.1-54.7-54-82.1-81c-27.5,27.2-54.7,53.9-82,80.9 c1.9,1,3.4,1.8,4.9,2.6c23,11.6,46.1,23.1,69.1,34.7c5.5,2.8,10.6,2.8,16.1,0c9.6-5,19.3-9.7,29-14.6 C352,409.8,366.9,402.4,382.3,394.7z M58.8,554.1c0.4,0.5,0.9,1,1.3,1.4c57.4-28.8,114.8-57.6,172.4-86.4 c-9.2-18.3-18.1-35.8-27-53.3c-2.2-4.3-3.9-4.5-7.5-0.9c-45.5,45.2-91,90.5-136.5,135.7C60.5,551.6,59.7,552.9,58.8,554.1z M367.8,469.1c57.7,28.9,115.1,57.7,172.5,86.5c0.4-0.5,0.8-0.9,1.2-1.4c-1.1-1.4-2-3-3.2-4.2c-45-44.8-90.1-89.6-135.1-134.3 c-0.7-0.7-1.4-1.5-2.1-2.1c-2.3-1.8-4.3-1.6-5.7,1.1C386.2,432.6,377.1,450.6,367.8,469.1z M300.2,564 c15.1-29.4,29.7-57.9,44.5-86.6c-13.9-7.6-27.7-15.3-41.6-22.7c-1.5-0.8-4.2-0.8-5.7,0c-13.9,7.4-27.7,15.1-41.6,22.7 C270.5,506.2,285.1,534.6,300.2,564z M229.4,420.6c-0.4,0.5-0.9,1-1.3,1.4c6.2,12.7,12.5,25.4,18.9,38.5 c10.8-5.1,21.2-10,31.6-14.9c0.1-0.6,0.2-1.3,0.3-1.9C262.5,435.8,246,428,229.4,420.6z M372.9,420.9c-2.4,0.3-3.5,0.2-4.3,0.6 c-14.7,6.9-29.5,13.8-44.1,20.7c-1.1,0.5-1.9,1.8-3.2,3.1c11.2,5.2,21.5,10.1,32.2,15.1C359.8,447.4,366.1,434.7,372.9,420.9z"></path> </g> </svg> 