<?xml version="1.0" encoding="UTF-8"?> <svg xmlns="http://www.w3.org/2000/svg" id="_Слой_1" data-name="Слой 1" viewBox="0 0 500 100"> <defs> <style> .cls-1 { fill: #fff; fill-rule: evenodd; } </style> </defs> <path class="cls-1" d="M326.08,79.21h12.96l3.2-11.56h16.78l3.43,11.56h14.64l-17.76-58.43h-15.33l-17.92,58.43Zm24.32-41.47h.31l5.41,19.39h-11.13l5.41-19.39ZM69.42,50.27h-23.92v9.34h15.24c-3.14,5.11-8.79,8.53-15.24,8.53-9.87,0-17.88-8.01-17.88-17.87s8.01-17.89,17.88-17.89c5.8,0,10.96,2.77,14.23,7.06l10.59-4.03c-5.06-8.43-14.28-14.07-24.82-14.07-15.96,0-28.91,12.96-28.91,28.93s12.95,28.91,28.91,28.91,28.92-12.95,28.92-28.91h-5Zm45.45-28.93V58.33c-.01,6.74-4.47,9.98-9.98,9.98s-9.95-3.25-9.96-9.98V21.34h-11.04V58.33c0,12,8.16,20.85,21,20.85s21.01-8.83,21.01-20.85V21.34h-11.04Zm98.2,57.84h13.37l-28.64-57.84h-13.38l-7.64,15.42-7.64-15.42h-13.37l-28.65,57.84h13.37l21.96-44.33,7.64,15.42-14.32,28.91h13.37l7.64-15.42,7.64,15.42h13.38l-14.33-28.91,7.65-15.42,21.96,44.33Zm31.85,0V21.46h-11.04v57.72h11.04Zm70.58-28.54c3.05-2.98,4.58-6.89,4.58-11.85,0-17.14-19.31-17.45-19.5-17.45h-17.58v57.84h19.24c4.7,0,20.02-1.24,20.02-17.06,0-.09,.21-7.83-6.75-11.48Zm-13.96-17.71c.32,0,7.72,.89,7.72,6.54-.18,5.38-11.84,4.98-14.55,5.09l.43-11.63h6.41Zm.68,34.74l-8.17-.04v-11.52l.25-.02h7.99c1.31-.07,5.11,.17,7.13,2.09,.96,.93,1.43,2.12,1.43,3.67,0,4.81-4.68,5.82-8.63,5.82Zm114.12-46.33V56.9l-17.61-35.55h-13.37v57.84h11.04V43.63l17.61,35.55h13.37V21.34h-11.04Zm38.28,0h-17.25v57.84h17.25c18.39,0,28.8-12.94,28.8-28.91s-10.42-28.93-28.8-28.93Zm0,46.8c-.58,0-5.65-.03-6.22-.07V32.45c.57-.04,5.64-.07,6.22-.07,11.37,0,17.21,8.01,17.21,17.89s-5.84,17.87-17.21,17.87Z"></path> </svg> 