<?xml version="1.0" encoding="UTF-8"?>
<svg id="SVGDoc" width="138" height="138" xmlns="http://www.w3.org/2000/svg" version="1.1" xmlns:xlink="http://www.w3.org/1999/xlink" xmlns:avocode="https://avocode.com/" viewBox="0 0 138 138"><defs><filter id="Filter1033" width="200%" height="200%" x="-50%" y="-50%"><feGaussianBlur stdDeviation="2.1 2.1" result="FeGaussianBlur1034Out" in="SourceGraphic"></feGaussianBlur></filter><mask id="Mask1035"><path d="M88.44698,132.47912c-10.25402,-4.00908 -20.13931,-3.2453 -29.65588,2.29029c-9.51656,5.53666 -16.48258,3.26239 -20.89817,-6.82388c-4.4157,-10.08413 -11.94557,-16.5352 -22.58984,-19.35c-10.64426,-2.81373 -13.96168,-9.34705 -9.95224,-19.60103c4.00932,-10.25505 3.24566,-20.14049 -2.29099,-29.65526c-5.53665,-9.5169 -3.26214,-16.48393 6.82354,-20.90001c10.08579,-4.41394 16.5358,-11.945 19.3499,-22.58995c2.81422,-10.64389 9.34834,-13.96182 19.60236,-9.95274c10.25402,4.01122 20.13931,3.24636 29.65576,-2.28923c9.51656,-5.53666 16.4827,-3.26346 20.89828,6.82388c4.41559,10.08413 11.94557,16.5352 22.58984,19.34893c10.64426,2.81373 13.96168,9.34919 9.95224,19.60317c-4.00932,10.25291 -3.24577,20.13836 2.29099,29.65419c5.53665,9.5169 3.26214,16.48393 -6.82365,20.90001c-10.08568,4.41501 -16.53568,11.945 -19.3499,22.58782c-2.8141,10.64496 -9.34822,13.96289 -19.60224,9.95381z" fill="#ffffff"></path></mask><clipPath id="ClipPath1042"><path d="M86.74913,125.69583c-9.17038,-3.58606 -18.01083,-2.90346 -26.52122,2.04674c-8.5104,4.94913 -14.74022,2.91628 -18.6898,-6.10282c-3.94947,-9.01804 -10.68386,-14.7865 -20.20317,-17.30219c-9.51942,-2.51676 -12.48653,-8.36 -8.90156,-17.52866c3.58509,-9.16759 2.90154,-18.00723 -2.05055,-26.51785c-4.95197,-8.50849 -2.91824,-14.73736 6.10119,-18.68556c9.01943,-3.94713 14.78725,-10.67914 17.30347,-20.19604c2.5161,-9.51904 8.35934,-12.48339 17.52983,-8.89732c9.17038,3.58606 18.01083,2.90239 26.52111,-2.04781c8.5104,-4.94913 14.74033,-2.91628 18.6898,6.10282c3.94947,9.01804 10.68398,14.7865 20.20329,17.30219c9.51942,2.51783 12.48653,8.36 8.90156,17.52759c-3.58509,9.16972 -2.90154,18.0083 2.05044,26.51785c4.95209,8.51062 2.91836,14.73736 -6.10107,18.68663c-9.01955,3.94606 -14.78725,10.67807 -17.30347,20.19604c-2.5161,9.51797 -8.35934,12.48339 -17.52983,8.89839z" fill="#ffffff"></path></clipPath></defs><desc>Generated with Avocode.</desc><g><g><title>Многоугольник 4</title><path d="M88.44698,132.47912c-10.25402,-4.00908 -20.13931,-3.2453 -29.65588,2.29029c-9.51656,5.53666 -16.48258,3.26239 -20.89817,-6.82388c-4.4157,-10.08413 -11.94557,-16.5352 -22.58984,-19.35c-10.64426,-2.81373 -13.96168,-9.34705 -9.95224,-19.60103c4.00932,-10.25505 3.24566,-20.14049 -2.29099,-29.65526c-5.53665,-9.5169 -3.26214,-16.48393 6.82354,-20.90001c10.08579,-4.41394 16.5358,-11.945 19.3499,-22.58995c2.81422,-10.64389 9.34834,-13.96182 19.60236,-9.95274c10.25402,4.01122 20.13931,3.24636 29.65576,-2.28923c9.51656,-5.53666 16.4827,-3.26346 20.89828,6.82388c4.41559,10.08413 11.94557,16.5352 22.58984,19.34893c10.64426,2.81373 13.96168,9.34919 9.95224,19.60317c-4.00932,10.25291 -3.24577,20.13836 2.29099,29.65419c5.53665,9.5169 3.26214,16.48393 -6.82365,20.90001c-10.08568,4.41501 -16.53568,11.945 -19.3499,22.58782c-2.8141,10.64496 -9.34822,13.96289 -19.60224,9.95381z" fill="#ffffff" fill-opacity="1"></path><path d="M88.44698,132.47912c-10.25402,-4.00908 -20.13931,-3.2453 -29.65588,2.29029c-9.51656,5.53666 -16.48258,3.26239 -20.89817,-6.82388c-4.4157,-10.08413 -11.94557,-16.5352 -22.58984,-19.35c-10.64426,-2.81373 -13.96168,-9.34705 -9.95224,-19.60103c4.00932,-10.25505 3.24566,-20.14049 -2.29099,-29.65526c-5.53665,-9.5169 -3.26214,-16.48393 6.82354,-20.90001c10.08579,-4.41394 16.5358,-11.945 19.3499,-22.58995c2.81422,-10.64389 9.34834,-13.96182 19.60236,-9.95274c10.25402,4.01122 20.13931,3.24636 29.65576,-2.28923c9.51656,-5.53666 16.4827,-3.26346 20.89828,6.82388c4.41559,10.08413 11.94557,16.5352 22.58984,19.34893c10.64426,2.81373 13.96168,9.34919 9.95224,19.60317c-4.00932,10.25291 -3.24577,20.13836 2.29099,29.65419c5.53665,9.5169 3.26214,16.48393 -6.82365,20.90001c-10.08568,4.41501 -16.53568,11.945 -19.3499,22.58782c-2.8141,10.64496 -9.34822,13.96289 -19.60224,9.95381z" fill="#bfe4ff" fill-opacity="1"></path><path d="M-4.2,144.2v-150.4h146.4v150.4zM108.04922,124.52531c2.81422,-10.64282 9.26422,-18.17281 19.3499,-22.58782c10.08579,-4.41608 12.3603,-11.38311 6.82365,-20.90001c-5.53676,-9.51583 -6.30031,-19.40128 -2.29099,-29.65419c4.00944,-10.25398 0.69202,-16.78944 -9.95224,-19.60317c-10.64427,-2.81373 -18.17425,-9.2648 -22.58984,-19.34893c-4.41558,-10.08734 -11.38172,-12.36054 -20.89828,-6.82388c-9.51645,5.53559 -19.40174,6.30045 -29.65576,2.28923c-10.25402,-4.00908 -16.78814,-0.69115 -19.60236,9.95274c-2.8141,10.64495 -9.26411,18.17601 -19.3499,22.58995c-10.08568,4.41608 -12.36019,11.38311 -6.82354,20.90001c5.53665,9.51477 6.30031,19.40021 2.29099,29.65526c-4.00944,10.25398 -0.69202,16.7873 9.95224,19.60103c10.64427,2.8148 18.17414,9.26587 22.58984,19.35c4.41559,10.08627 11.38161,12.36054 20.89817,6.82388c9.51657,-5.53559 19.40186,-6.29937 29.65588,-2.29029c10.25402,4.00908 16.78814,0.69115 19.60224,-9.95381z" fill="#ffffff" fill-opacity="0.23" stroke-opacity="0.23" stroke="#ffffff" stroke-width="5.6" filter="url(#Filter1033)" mask="url(&quot;#Mask1035&quot;)"></path></g><g opacity="0.7"><title>Многоугольник 4 копия</title><path d="M86.74913,125.69583c-9.17038,-3.58606 -18.01083,-2.90346 -26.52122,2.04674c-8.5104,4.94913 -14.74022,2.91628 -18.6898,-6.10282c-3.94947,-9.01804 -10.68386,-14.7865 -20.20317,-17.30219c-9.51942,-2.51676 -12.48653,-8.36 -8.90156,-17.52866c3.58509,-9.16759 2.90154,-18.00723 -2.05055,-26.51785c-4.95197,-8.50849 -2.91824,-14.73736 6.10119,-18.68556c9.01943,-3.94713 14.78725,-10.67914 17.30347,-20.19604c2.5161,-9.51904 8.35934,-12.48339 17.52983,-8.89732c9.17038,3.58606 18.01083,2.90239 26.52111,-2.04781c8.5104,-4.94913 14.74033,-2.91628 18.6898,6.10282c3.94947,9.01804 10.68398,14.7865 20.20329,17.30219c9.51942,2.51783 12.48653,8.36 8.90156,17.52759c-3.58509,9.16972 -2.90154,18.0083 2.05044,26.51785c4.95209,8.51062 2.91836,14.73736 -6.10107,18.68663c-9.01955,3.94606 -14.78725,10.67807 -17.30347,20.19604c-2.5161,9.51797 -8.35934,12.48339 -17.52983,8.89839z" fill-opacity="0" fill="#ffffff" stroke-dashoffset="0" stroke-dasharray="" stroke-linejoin="miter" stroke-linecap="butt" stroke-opacity="1" stroke="#ffffff" stroke-miterlimit="50" stroke-width="2" clip-path="url(&quot;#ClipPath1042&quot;)"></path></g></g></svg>