<?xml version="1.0" encoding="UTF-8"?>
<svg id="SVGDoc" width="779" height="475" xmlns="http://www.w3.org/2000/svg" version="1.1" xmlns:xlink="http://www.w3.org/1999/xlink" xmlns:avocode="https://avocode.com/" viewBox="0 0 779 475"><defs><mask id="Mask1018" x="-1.0185185185185186" y="-1.0399239543726235" width="2.037037037037037" height="2.079847908745247"><rect width="588" height="284" x="95.5" y="72.5" fill="#ffffff"></rect><path d="M109.99995,82.99972l247.0879,0c3.76221,14.38487 16.84753,24.99989 32.41207,24.99989c15.56454,0 28.64993,-10.61502 32.41217,-24.99989h247.0878c2.20917,0 4.00005,1.79036 4.00005,3.99947v255.00038c0,2.20911 -1.79089,3.99947 -4.00005,3.99947h-558.99994c-2.20917,0 -4.00005,-1.79036 -4.00005,-3.99947v-255.00038c0,-2.20911 1.79089,-3.99947 4.00005,-3.99947z" fill="#000000"></path></mask><filter id="Filter1022" width="887" height="606" x="-54" y="-77" filterUnits="userSpaceOnUse"><feOffset dx="0" dy="23" result="FeOffset1023Out" in="SourceGraphic"></feOffset><feGaussianBlur stdDeviation="55.8 55.8" result="FeGaussianBlur1024Out" in="FeOffset1023Out"></feGaussianBlur></filter></defs><desc>Generated with Avocode.</desc><g><g><title>Прямоугольник 4 копия 2</title><g filter="url(#Filter1022)"><path d="M109.99995,82.99972l247.0879,0c3.76221,14.38487 16.84753,24.99989 32.41207,24.99989c15.56454,0 28.64993,-10.61502 32.41217,-24.99989h247.0878c2.20917,0 4.00005,1.79036 4.00005,3.99947v255.00038c0,2.20911 -1.79089,3.99947 -4.00005,3.99947h-558.99994c-2.20917,0 -4.00005,-1.79036 -4.00005,-3.99947v-255.00038c0,-2.20911 1.79089,-3.99947 4.00005,-3.99947z" fill="none" stroke="#5d5d5d" stroke-opacity="0.06" stroke-width="21" mask="url(&quot;#Mask1018&quot;)"></path><path d="M109.99995,82.99972l247.0879,0c3.76221,14.38487 16.84753,24.99989 32.41207,24.99989c15.56454,0 28.64993,-10.61502 32.41217,-24.99989h247.0878c2.20917,0 4.00005,1.79036 4.00005,3.99947v255.00038c0,2.20911 -1.79089,3.99947 -4.00005,3.99947h-558.99994c-2.20917,0 -4.00005,-1.79036 -4.00005,-3.99947v-255.00038c0,-2.20911 1.79089,-3.99947 4.00005,-3.99947z" fill="#5d5d5d" fill-opacity="0.06"></path></g><path d="M109.99995,82.99972l247.0879,0c3.76221,14.38487 16.84753,24.99989 32.41207,24.99989c15.56454,0 28.64993,-10.61502 32.41217,-24.99989h247.0878c2.20917,0 4.00005,1.79036 4.00005,3.99947v255.00038c0,2.20911 -1.79089,3.99947 -4.00005,3.99947h-558.99994c-2.20917,0 -4.00005,-1.79036 -4.00005,-3.99947v-255.00038c0,-2.20911 1.79089,-3.99947 4.00005,-3.99947z" fill="#f1f1f1" fill-opacity="1"></path></g><g><title>Прямоугольник 4 копия 2</title><path d="M116.99996,89.99986h233.15521c6.2922,15.25934 21.31421,25.99976 38.84476,25.99976c17.53055,0 32.55262,-10.74042 38.84485,-25.99976h233.15512c2.20917,0 4.00005,1.79036 4.00005,3.99947v241.0001c0,2.20911 -1.79089,4.00054 -4.00005,4.00054h-543.99994c-2.20917,0 -4.00005,-1.79143 -4.00005,-4.00054v-241.0001c0,-2.20911 1.79089,-3.99947 4.00005,-3.99947z" fill="#ffffff" fill-opacity="1"></path></g></g></svg>