<?xml version="1.0" encoding="UTF-8"?>
<svg id="SVGDoc" width="8" height="8" xmlns="http://www.w3.org/2000/svg" version="1.1" xmlns:xlink="http://www.w3.org/1999/xlink" xmlns:avocode="https://avocode.com/" viewBox="0 0 8 8"><defs></defs><desc>Generated with Avocode.</desc><g><g><title>Многоугольник 5</title><path d="M6.13996,6.99411c-0.61432,-0.03632 -1.12621,0.17626 -1.5358,0.63453c-0.40947,0.46041 -0.81905,0.46041 -1.22864,0c-0.40958,-0.45827 -0.92148,-0.67085 -1.5358,-0.63453c-0.61432,0.03525 -0.90397,-0.25531 -0.86884,-0.86954c0.03513,-0.61423 -0.17693,-1.12699 -0.63606,-1.53505c-0.45925,-0.41127 -0.45925,-0.81934 0,-1.22847c0.45914,-0.4102 0.6712,-0.92295 0.63606,-1.53719c-0.03513,-0.61423 0.25452,-0.90373 0.86884,-0.86954c0.61432,0.03739 1.12621,-0.17626 1.5358,-0.6356c0.40958,-0.45827 0.81917,-0.45827 1.22864,0c0.40958,0.45934 0.92148,0.67299 1.5358,0.6356c0.61443,-0.03418 0.90397,0.25531 0.86884,0.86954c-0.03513,0.61423 0.17693,1.12699 0.63618,1.53719c0.45925,0.40913 0.45925,0.8172 0,1.22847c-0.45925,0.40807 -0.67131,0.92082 -0.63618,1.53505c0.03513,0.61423 -0.2544,0.90479 -0.86884,0.86954z" fill="#f36436" fill-opacity="1"></path></g></g></svg>