<svg xmlns="http://www.w3.org/2000/svg" width="502" height="473" viewBox="0 0 502 473"><g><g><g ><path fill="none" stroke="#5d5d5d" stroke-opacity=".06" stroke-width="21" d="M110 81h109.088c3.762 14.384 16.847 25 32.412 25 15.565 0 28.65-10.616 32.412-25H392a4 4 0 0 1 4 4v255a4 4 0 0 1-4 4H110a4 4 0 0 1-4-4V85a4 4 0 0 1 4-4z" mask="url(&quot;#cytlb&quot;)"/><path fill="#5d5d5d" fill-opacity=".06" d="M110 81h109.088c3.762 14.384 16.847 25 32.412 25 15.565 0 28.65-10.616 32.412-25H392a4 4 0 0 1 4 4v255a4 4 0 0 1-4 4H110a4 4 0 0 1-4-4V85a4 4 0 0 1 4-4z"/></g><path fill="#f1f1f1" d="M110 81h109.088c3.762 14.384 16.847 25 32.412 25 15.565 0 28.65-10.616 32.412-25H392a4 4 0 0 1 4 4v255a4 4 0 0 1-4 4H110a4 4 0 0 1-4-4V85a4 4 0 0 1 4-4z"/></g><g><path fill="#fff" d="M117 88h95.155c6.293 15.26 21.315 26 38.845 26 17.53 0 32.552-10.74 38.845-26H384a4 4 0 0 1 4 4v241a4 4 0 0 1-4 4H117a4 4 0 0 1-4-4V92a4 4 0 0 1 4-4z"/></g></g></svg>