<svg width="20" height="20" viewBox="0 0 20 20" fill="none" xmlns="http://www.w3.org/2000/svg">
<path fill-rule="evenodd" clip-rule="evenodd" d="M3.33337 10C3.33337 9.53978 3.70647 9.16669 4.16671 9.16669H15.8334C16.2936 9.16669 16.6667 9.53978 16.6667 10C16.6667 10.4603 16.2936 10.8334 15.8334 10.8334H4.16671C3.70647 10.8334 3.33337 10.4603 3.33337 10Z" fill="#4D97EE"/>
<path fill-rule="evenodd" clip-rule="evenodd" d="M9.4107 3.57739C9.73614 3.25195 10.2638 3.25195 10.5892 3.57739L16.4225 9.41072C16.748 9.73616 16.748 10.2638 16.4225 10.5892L10.5892 16.4226C10.2638 16.748 9.73614 16.748 9.4107 16.4226C9.08527 16.0971 9.08527 15.5695 9.4107 15.2441L14.6548 9.99998L9.4107 4.7559C9.08527 4.43047 9.08527 3.90283 9.4107 3.57739Z" fill="#4D97EE"/>
</svg>
