<svg width="25" height="24" viewBox="0 0 25 24" fill="none" xmlns="http://www.w3.org/2000/svg">
<path fill-rule="evenodd" clip-rule="evenodd" d="M6.8125 20.0003C6.8125 19.448 7.26022 19.0003 7.8125 19.0003H17.8125C18.3648 19.0003 18.8125 19.448 18.8125 20.0003C18.8125 20.5526 18.3648 21.0003 17.8125 21.0003H7.8125C7.26022 21.0003 6.8125 20.5526 6.8125 20.0003Z" fill="black"/>
<path fill-rule="evenodd" clip-rule="evenodd" d="M14.3337 9.14704C14.805 9.43503 14.9535 10.0505 14.6655 10.5218C14.253 11.1969 14.1486 11.8968 14.1876 12.6803C14.2075 13.0799 14.264 13.49 14.334 13.9302C14.3507 14.0353 14.3685 14.1439 14.3867 14.2548C14.4418 14.5904 14.5002 14.947 14.5424 15.2914C14.6554 16.216 14.6865 17.2836 14.1953 18.3183C13.695 19.3721 12.7369 20.2239 11.2261 20.9107C10.7233 21.1392 10.1304 20.9169 9.90189 20.4141C9.67335 19.9113 9.89567 19.3185 10.3985 19.09C11.6376 18.5267 12.1545 17.9536 12.3886 17.4605C12.6317 16.9483 12.6566 16.3472 12.5572 15.5342C12.5204 15.2339 12.4716 14.936 12.4185 14.6123C12.3991 14.4936 12.3791 14.3714 12.3588 14.2443C12.2863 13.788 12.2155 13.291 12.1901 12.7797C12.1384 11.7413 12.2716 10.6037 12.959 9.47888C13.247 9.00762 13.8625 8.85906 14.3337 9.14704Z" fill="black"/>
<path fill-rule="evenodd" clip-rule="evenodd" d="M6.17915 9.42829C6.78724 10.8142 7.54949 11.5508 8.25972 11.9059C8.26875 11.9104 8.27771 11.9151 8.2866 11.9199C9.05641 12.3344 9.9627 12.4588 11.2402 12.3104C10.8289 11.3824 10.3346 10.6529 9.72433 10.2091C9.03206 9.7056 8.00826 9.28473 6.17915 9.42829ZM4.63671 7.61591C7.63717 7.08011 9.53065 7.59522 10.9007 8.5916C12.2647 9.58365 13.0465 11.24 13.5612 12.7841C13.6519 13.0562 13.6214 13.3542 13.4774 13.6023C13.3334 13.8503 13.0899 14.0247 12.8086 14.0809C10.7453 14.4936 8.96103 14.5489 7.35167 13.6879C5.83932 12.9261 4.60601 11.3564 3.85583 8.8915C3.7726 8.61803 3.81038 8.32202 3.95963 8.07822C4.10887 7.83443 4.35531 7.66616 4.63671 7.61591Z" fill="black"/>
<path fill-rule="evenodd" clip-rule="evenodd" d="M20.5217 3.29548C20.7184 3.49353 20.8235 3.76482 20.8113 4.04374C20.7033 6.52931 20.0371 8.08967 18.8194 9.30741C18.7933 9.3335 18.7658 9.35813 18.737 9.38118C17.5309 10.3461 15.9112 10.8912 13.8648 10.9989C13.5965 11.013 13.3338 10.9186 13.1359 10.7368C12.938 10.5551 12.8215 10.3013 12.8128 10.0328C12.7603 8.41694 13.1986 6.82312 14.07 5.46134C14.0994 5.41538 14.1325 5.3719 14.169 5.33134C14.685 4.75796 15.339 4.18947 16.2636 3.757C17.1829 3.32702 18.3193 3.05492 19.7753 3.00099C20.0543 2.99066 20.3249 3.09743 20.5217 3.29548ZM15.711 6.60854C15.2785 7.30511 14.9954 8.07978 14.8749 8.88371C16.006 8.69644 16.8359 8.32703 17.4445 7.85341C18.0502 7.23414 18.5017 6.44874 18.7063 5.10521C18.0448 5.20847 17.5272 5.37393 17.111 5.56862C16.5154 5.84719 16.0825 6.20646 15.711 6.60854Z" fill="black"/>
</svg>
