<svg width="17" height="16" viewBox="0 0 17 16" fill="none" xmlns="http://www.w3.org/2000/svg">
<path fill-rule="evenodd" clip-rule="evenodd" d="M3.83337 3.33333C3.46518 3.33333 3.16671 3.63181 3.16671 4V13.3333C3.16671 13.7015 3.46518 14 3.83337 14H13.1667C13.5349 14 13.8334 13.7015 13.8334 13.3333V4C13.8334 3.63181 13.5349 3.33333 13.1667 3.33333H3.83337ZM1.83337 4C1.83337 2.89543 2.7288 2 3.83337 2H13.1667C14.2713 2 15.1667 2.89543 15.1667 4V13.3333C15.1667 14.4379 14.2713 15.3333 13.1667 15.3333H3.83337C2.7288 15.3333 1.83337 14.4379 1.83337 13.3333V4Z" fill="#4D97EE"/>
<path fill-rule="evenodd" clip-rule="evenodd" d="M11.1667 0.666626C11.5349 0.666626 11.8333 0.965103 11.8333 1.33329V3.99996C11.8333 4.36815 11.5349 4.66663 11.1667 4.66663C10.7985 4.66663 10.5 4.36815 10.5 3.99996V1.33329C10.5 0.965103 10.7985 0.666626 11.1667 0.666626Z" fill="#4D97EE"/>
<path fill-rule="evenodd" clip-rule="evenodd" d="M5.83329 0.666626C6.20148 0.666626 6.49996 0.965103 6.49996 1.33329V3.99996C6.49996 4.36815 6.20148 4.66663 5.83329 4.66663C5.4651 4.66663 5.16663 4.36815 5.16663 3.99996V1.33329C5.16663 0.965103 5.4651 0.666626 5.83329 0.666626Z" fill="#4D97EE"/>
<path fill-rule="evenodd" clip-rule="evenodd" d="M1.83337 6.66667C1.83337 6.29848 2.13185 6 2.50004 6H14.5C14.8682 6 15.1667 6.29848 15.1667 6.66667C15.1667 7.03486 14.8682 7.33333 14.5 7.33333H2.50004C2.13185 7.33333 1.83337 7.03486 1.83337 6.66667Z" fill="#4D97EE"/>
</svg>
