<svg width="25" height="24" viewBox="0 0 25 24" fill="none" xmlns="http://www.w3.org/2000/svg">
<path fill-rule="evenodd" clip-rule="evenodd" d="M20.2642 8.03224C20.0254 7.98287 19.7782 7.99243 19.544 8.06011C19.3098 8.12778 19.0956 8.25153 18.92 8.42064C18.5221 8.80371 17.8891 8.79174 17.506 8.3939C17.1229 7.99606 17.1349 7.36301 17.5328 6.97994C17.9425 6.58536 18.4423 6.29662 18.9888 6.13871C19.5354 5.9808 20.1121 5.95848 20.6692 6.07369C21.2263 6.1889 21.7469 6.43816 22.186 6.79989C22.625 7.16162 22.9693 7.62492 23.1889 8.14968C23.4086 8.67443 23.4971 9.24481 23.4466 9.81145C23.3962 10.3781 23.2084 10.9239 22.8995 11.4016C22.5906 11.8793 22.1699 12.2745 21.6739 12.553C21.1779 12.8315 20.6214 12.9849 20.0528 12.9999C20.044 13.0002 20.0352 13.0003 20.0264 13.0003H2.52637C1.97408 13.0003 1.52637 12.5526 1.52637 12.0003C1.52637 11.448 1.97408 11.0003 2.52637 11.0003H20.0115C20.2512 10.9921 20.4855 10.9266 20.6948 10.8091C20.9073 10.6897 21.0876 10.5204 21.22 10.3156C21.3524 10.1109 21.4329 9.87698 21.4545 9.63414C21.4761 9.3913 21.4382 9.14685 21.3441 8.92195C21.2499 8.69706 21.1024 8.4985 20.9142 8.34347C20.726 8.18844 20.5029 8.08162 20.2642 8.03224Z" fill="black"/>
<path fill-rule="evenodd" clip-rule="evenodd" d="M11.7457 5.01895C11.5833 4.9873 11.4156 4.99645 11.2576 5.04557C11.0996 5.09468 10.9563 5.18224 10.8404 5.30039C10.4538 5.69475 9.82063 5.70099 9.42627 5.31434C9.03191 4.92768 9.02567 4.29455 9.41232 3.90019C9.75984 3.54575 10.1899 3.28308 10.6639 3.13572C11.1379 2.98837 11.6411 2.96093 12.1283 3.05588C12.6155 3.15083 13.0716 3.36519 13.4556 3.67975C13.8396 3.99431 14.1395 4.39924 14.3285 4.85824C14.5175 5.31724 14.5896 5.81596 14.5385 6.3097C14.4873 6.80345 14.3144 7.27678 14.0353 7.68727C13.7562 8.09776 13.3796 8.43259 12.9393 8.66173C12.5012 8.88968 12.0137 9.00596 11.52 9.00029H2.52637C1.97408 9.00029 1.52637 8.55258 1.52637 8.00029C1.52637 7.44801 1.97408 7.00029 2.52637 7.00029H11.5404C11.7059 7.00262 11.8693 6.96395 12.0161 6.88757C12.1629 6.81119 12.2884 6.69958 12.3814 6.56275C12.4745 6.42592 12.5321 6.26814 12.5491 6.10356C12.5662 5.93898 12.5421 5.77274 12.4791 5.61974C12.4161 5.46674 12.3162 5.33176 12.1882 5.22691C12.0602 5.12206 11.9081 5.0506 11.7457 5.01895Z" fill="black"/>
<path fill-rule="evenodd" clip-rule="evenodd" d="M14.5201 15.0003C15.0138 14.9947 15.5013 15.1109 15.9393 15.3389C16.3796 15.568 16.7562 15.9028 17.0353 16.3133C17.3144 16.7238 17.4873 17.1972 17.5385 17.6909C17.5896 18.1847 17.5175 18.6834 17.3285 19.1424C17.1395 19.6014 16.8396 20.0063 16.4556 20.3209C16.0716 20.6354 15.6155 20.8498 15.1283 20.9447C14.6411 21.0397 14.1379 21.0122 13.6639 20.8649C13.1899 20.7175 12.7598 20.4549 12.4123 20.1004C12.0257 19.7061 12.0319 19.0729 12.4263 18.6863C12.8206 18.2996 13.4538 18.3059 13.8404 18.7002C13.9563 18.8184 14.0996 18.9059 14.2576 18.955C14.4156 19.0042 14.5833 19.0133 14.7457 18.9817C14.9081 18.95 15.0602 18.8786 15.1882 18.7737C15.3162 18.6688 15.4161 18.5339 15.4791 18.3809C15.5421 18.2279 15.5662 18.0616 15.5491 17.8971C15.5321 17.7325 15.4745 17.5747 15.3814 17.4379C15.2884 17.301 15.1629 17.1894 15.0161 17.113C14.8693 17.0367 14.7059 16.9979 14.5404 17.0002L14.5264 17.0004V17.0003H2.52637C1.97408 17.0003 1.52637 16.5526 1.52637 16.0003C1.52637 15.448 1.97408 15.0003 2.52637 15.0003H14.5201Z" fill="black"/>
</svg>
