<svg width="24" height="24" viewBox="0 0 24 24" fill="none" xmlns="http://www.w3.org/2000/svg">
<path d="M5 4.00018V6.64018C4.99955 6.87384 5.08092 7.10027 5.23 7.28018L9.77 12.7202C9.91908 12.9001 10.0005 13.1265 10 13.3602V21.0002L14 19.0002V13.3602C13.9995 13.1265 14.0809 12.9001 14.23 12.7202L18.77 7.28018C18.9191 7.10027 19.0005 6.87384 19 6.64018V4.00018C19 3.73497 18.8946 3.48061 18.7071 3.29308C18.5196 3.10554 18.2652 3.00018 18 3.00018H6C5.73479 3.00018 5.48043 3.10554 5.2929 3.29308C5.10536 3.48061 5 3.73497 5 4.00018V4.00018Z" stroke="white" stroke-width="2" stroke-linecap="round" stroke-linejoin="round"/>
</svg>
