<svg width="17" height="16" viewBox="0 0 17 16" fill="none" xmlns="http://www.w3.org/2000/svg">
<g clip-path="url(#clip0_649_3471)">
<path fill-rule="evenodd" clip-rule="evenodd" d="M2.8335 3.33333C2.46835 3.33333 2.16683 3.63486 2.16683 4V12C2.16683 12.3651 2.46835 12.6667 2.8335 12.6667H13.5002C13.8653 12.6667 14.1668 12.3651 14.1668 12V4C14.1668 3.63486 13.8653 3.33333 13.5002 3.33333H2.8335ZM0.833496 4C0.833496 2.89848 1.73197 2 2.8335 2H13.5002C14.6017 2 15.5002 2.89848 15.5002 4V12C15.5002 13.1015 14.6017 14 13.5002 14H2.8335C1.73197 14 0.833496 13.1015 0.833496 12V4Z" fill="#4D97EE"/>
<path fill-rule="evenodd" clip-rule="evenodd" d="M0.953821 3.6177C1.16496 3.31607 1.58065 3.24271 1.88228 3.45385L8.16664 7.8529L14.451 3.45385C14.7526 3.24271 15.1683 3.31607 15.3795 3.6177C15.5906 3.91933 15.5172 4.33502 15.2156 4.54616L8.54895 9.21283C8.3194 9.37351 8.01388 9.37351 7.78433 9.21283L1.11767 4.54616C0.816035 4.33502 0.742678 3.91933 0.953821 3.6177Z" fill="#4D97EE"/>
</g>
<defs>
<clipPath id="clip0_649_3471">
<rect width="16" height="16" fill="white" transform="translate(0.166748)"/>
</clipPath>
</defs>
</svg>
