<svg width="16" height="16" viewBox="0 0 16 16" fill="none" xmlns="http://www.w3.org/2000/svg">
<path fill-rule="evenodd" clip-rule="evenodd" d="M2.66663 3.33333C2.30148 3.33333 1.99996 3.63486 1.99996 4V12C1.99996 12.3651 2.30148 12.6667 2.66663 12.6667H13.3333C13.6984 12.6667 14 12.3651 14 12V4C14 3.63486 13.6984 3.33333 13.3333 3.33333H2.66663ZM0.666626 4C0.666626 2.89848 1.5651 2 2.66663 2H13.3333C14.4348 2 15.3333 2.89848 15.3333 4V12C15.3333 13.1015 14.4348 14 13.3333 14H2.66663C1.5651 14 0.666626 13.1015 0.666626 12V4Z" fill="#4D97EE"/>
<path fill-rule="evenodd" clip-rule="evenodd" d="M0.787195 3.61767C0.998338 3.31603 1.41403 3.24268 1.71566 3.45382L8.00002 7.85287L14.2844 3.45382C14.586 3.24268 15.0017 3.31603 15.2128 3.61767C15.424 3.9193 15.3506 4.33499 15.049 4.54613L8.38232 9.2128C8.15278 9.37348 7.84725 9.37348 7.61771 9.2128L0.951042 4.54613C0.649409 4.33499 0.576052 3.9193 0.787195 3.61767Z" fill="#4D97EE"/>
</svg>
