<svg width="22" height="23" viewBox="0 0 22 23" fill="none" xmlns="http://www.w3.org/2000/svg">
<path fill-rule="evenodd" clip-rule="evenodd" d="M3.66663 5.08333C3.16455 5.08333 2.74996 5.49793 2.74996 6V17C2.74996 17.5021 3.16455 17.9167 3.66663 17.9167H18.3333C18.8354 17.9167 19.25 17.5021 19.25 17V6C19.25 5.49793 18.8354 5.08333 18.3333 5.08333H3.66663ZM0.916626 6C0.916626 4.48541 2.15203 3.25 3.66663 3.25H18.3333C19.8479 3.25 21.0833 4.48541 21.0833 6V17C21.0833 18.5146 19.8479 19.75 18.3333 19.75H3.66663C2.15203 19.75 0.916626 18.5146 0.916626 17V6Z" fill="#4D97EE"/>
<path fill-rule="evenodd" clip-rule="evenodd" d="M1.08241 5.47432C1.37273 5.05958 1.9443 4.95871 2.35905 5.24903L11 11.2977L19.641 5.24903C20.0558 4.95871 20.6273 5.05958 20.9177 5.47432C21.208 5.88907 21.1071 6.46064 20.6924 6.75096L11.5257 13.1676C11.2101 13.3886 10.79 13.3886 10.4744 13.1676L1.3077 6.75096C0.892952 6.46064 0.792087 5.88907 1.08241 5.47432Z" fill="#4D97EE"/>
</svg>
