<svg width="17" height="17" viewBox="0 0 17 17" fill="none" xmlns="http://www.w3.org/2000/svg">
<g clip-path="url(#clip0_645_3402)">
<path fill-rule="evenodd" clip-rule="evenodd" d="M8.8889 1.83333C7.47441 1.83333 6.11785 2.39524 5.11766 3.39543C4.11747 4.39562 3.55556 5.75218 3.55556 7.16667C3.55556 9.23204 4.89939 11.2362 6.37286 12.7915C7.09597 13.5548 7.82134 14.1796 8.36668 14.6139C8.56964 14.7755 8.74691 14.9101 8.8889 15.0151C9.03088 14.9101 9.20815 14.7755 9.41111 14.6139C9.95645 14.1796 10.6818 13.5548 11.4049 12.7915C12.8784 11.2362 14.2222 9.23204 14.2222 7.16667C14.2222 5.75218 13.6603 4.39562 12.6601 3.39543C11.6599 2.39524 10.3034 1.83333 8.8889 1.83333ZM8.8889 15.8333C8.5191 16.388 8.51893 16.3879 8.51873 16.3878L8.51683 16.3865L8.51239 16.3835L8.49711 16.3732C8.48413 16.3644 8.46561 16.3517 8.44193 16.3353C8.39458 16.3025 8.32654 16.2547 8.24076 16.1928C8.06926 16.0689 7.82647 15.8881 7.53611 15.6569C6.95645 15.1954 6.18182 14.5286 5.40493 13.7085C3.8784 12.0972 2.22223 9.76796 2.22223 7.16667C2.22223 5.39856 2.92461 3.70286 4.17485 2.45262C5.42509 1.20238 7.12079 0.5 8.8889 0.5C10.657 0.5 12.3527 1.20238 13.6029 2.45262C14.8532 3.70286 15.5556 5.39856 15.5556 7.16667C15.5556 9.76796 13.8994 12.0972 12.3729 13.7085C11.596 14.5286 10.8213 15.1954 10.2417 15.6569C9.95132 15.8881 9.70853 16.0689 9.53704 16.1928C9.45125 16.2547 9.38321 16.3025 9.33586 16.3353C9.31218 16.3517 9.29366 16.3644 9.28068 16.3732L9.26541 16.3835L9.26096 16.3865L9.25955 16.3875C9.25936 16.3876 9.2587 16.388 8.8889 15.8333ZM8.8889 15.8333L9.2587 16.388C9.03476 16.5373 8.74267 16.5371 8.51873 16.3878L8.8889 15.8333Z" fill="#848484"/>
<path fill-rule="evenodd" clip-rule="evenodd" d="M8.8889 5.83333C8.15252 5.83333 7.55556 6.43029 7.55556 7.16667C7.55556 7.90305 8.15252 8.5 8.8889 8.5C9.62528 8.5 10.2222 7.90305 10.2222 7.16667C10.2222 6.43029 9.62528 5.83333 8.8889 5.83333ZM6.22223 7.16667C6.22223 5.69391 7.41614 4.5 8.8889 4.5C10.3617 4.5 11.5556 5.69391 11.5556 7.16667C11.5556 8.63943 10.3617 9.83333 8.8889 9.83333C7.41614 9.83333 6.22223 8.63943 6.22223 7.16667Z" fill="#848484"/>
</g>
<defs>
<clipPath id="clip0_645_3402">
<rect width="16" height="16" fill="white" transform="translate(0.888916 0.5)"/>
</clipPath>
</defs>
</svg>
