<svg width="60" height="48" viewBox="0 0 60 48" fill="none" xmlns="http://www.w3.org/2000/svg">
<path d="M57 18C57.7956 18 58.5587 17.6839 59.1213 17.1213C59.6839 16.5587 60 15.7956 60 15V6C60 4.4087 59.3679 2.88258 58.2426 1.75736C57.1174 0.632141 55.5913 0 54 0H6C4.4087 0 2.88258 0.632141 1.75736 1.75736C0.632141 2.88258 0 4.4087 0 6V15C0 15.7956 0.31607 16.5587 0.87868 17.1213C1.44129 17.6839 2.20435 18 3 18C4.5913 18 6.11742 18.6321 7.24264 19.7574C8.36786 20.8826 9 22.4087 9 24C9 25.5913 8.36786 27.1174 7.24264 28.2426C6.11742 29.3679 4.5913 30 3 30C2.20435 30 1.44129 30.3161 0.87868 30.8787C0.31607 31.4413 0 32.2044 0 33V42C0 43.5913 0.632141 45.1174 1.75736 46.2426C2.88258 47.3679 4.4087 48 6 48H54C55.5913 48 57.1174 47.3679 58.2426 46.2426C59.3679 45.1174 60 43.5913 60 42V33C60 32.2044 59.6839 31.4413 59.1213 30.8787C58.5587 30.3161 57.7956 30 57 30C55.4087 30 53.8826 29.3679 52.7574 28.2426C51.6321 27.1174 51 25.5913 51 24C51 22.4087 51.6321 20.8826 52.7574 19.7574C53.8826 18.6321 55.4087 18 57 18V18Z" fill="#4D97EE"/>
<path d="M24 36C23.2044 36 22.4413 36.3161 21.8787 36.8787C21.3161 37.4413 21 38.2044 21 39V48H27V39C27 38.2044 26.6839 37.4413 26.1213 36.8787C25.5587 36.3161 24.7956 36 24 36ZM24 18C23.2044 18 22.4413 18.3161 21.8787 18.8787C21.3161 19.4413 21 20.2044 21 21V27C21 27.7956 21.3161 28.5587 21.8787 29.1213C22.4413 29.6839 23.2044 30 24 30C24.7956 30 25.5587 29.6839 26.1213 29.1213C26.6839 28.5587 27 27.7956 27 27V21C27 20.2044 26.6839 19.4413 26.1213 18.8787C25.5587 18.3161 24.7956 18 24 18ZM21 0V9C21 9.79565 21.3161 10.5587 21.8787 11.1213C22.4413 11.6839 23.2044 12 24 12C24.7956 12 25.5587 11.6839 26.1213 11.1213C26.6839 10.5587 27 9.79565 27 9V0H21Z" fill="#1BD290"/>
</svg>
