<svg width="25" height="24" viewBox="0 0 25 24" fill="none" xmlns="http://www.w3.org/2000/svg">
<path d="M21.5 20C21.5 20.5304 21.2893 21.0391 20.9142 21.4142C20.5391 21.7893 20.0304 22 19.5 22H5.5C4.96957 22 4.46086 21.7893 4.08579 21.4142C3.71071 21.0391 3.5 20.5304 3.5 20C3.5 18.4087 4.13214 16.8826 5.25736 15.7574C6.38258 14.6321 7.9087 14 9.5 14H15.5C17.0913 14 18.6174 14.6321 19.7426 15.7574C20.8679 16.8826 21.5 18.4087 21.5 20ZM12.5 12C13.4889 12 14.4556 11.7068 15.2779 11.1573C16.1001 10.6079 16.741 9.82705 17.1194 8.91342C17.4978 7.99979 17.5969 6.99446 17.4039 6.02455C17.211 5.05465 16.7348 4.16373 16.0355 3.46447C15.3363 2.76521 14.4454 2.289 13.4755 2.09608C12.5055 1.90315 11.5002 2.00217 10.5866 2.3806C9.67295 2.75904 8.89206 3.39991 8.34265 4.22215C7.79324 5.0444 7.5 6.0111 7.5 7C7.5 8.32609 8.02678 9.59785 8.96447 10.5355C9.90215 11.4732 11.1739 12 12.5 12Z" fill="black"/>
</svg>
