<svg width="17" height="16" viewBox="0 0 17 16" fill="none" xmlns="http://www.w3.org/2000/svg">
<g clip-path="url(#clip0_649_3468)">
<path d="M13.4268 15.2867C13.3668 15.2867 13.3068 15.2867 13.2401 15.28C11.0868 15.0467 8.99347 14.3 7.18681 13.1267C5.50681 12.06 4.05347 10.6067 2.98681 8.92667C1.81347 7.11334 1.06681 5.01334 0.84014 2.86C0.813474 2.57334 0.846807 2.3 0.933474 2.03334C1.02014 1.76667 1.16681 1.52667 1.35347 1.32001C1.54014 1.11334 1.76681 0.953338 2.02014 0.840005C2.28014 0.726672 2.55347 0.666672 2.83347 0.666672H4.83347C5.30014 0.666672 5.78014 0.833338 6.15347 1.15334C6.52014 1.46667 6.76014 1.90667 6.82681 2.38667C6.90681 2.98 7.05347 3.56667 7.26014 4.12C7.39347 4.48 7.42681 4.86667 7.34014 5.24001C7.26014 5.61334 7.07347 5.96 6.80681 6.22667L6.32681 6.70667C7.11347 7.93334 8.15347 8.98 9.38681 9.76667L9.86681 9.28667C10.1401 9.01334 10.4868 8.82667 10.8601 8.75334C11.2335 8.67334 11.6201 8.7 11.9801 8.83334C12.5335 9.04 13.1201 9.18667 13.7068 9.26667C14.2001 9.33334 14.6401 9.58 14.9601 9.95334C15.2735 10.3267 15.4468 10.8 15.4335 11.2867V13.28C15.4335 13.56 15.3801 13.8267 15.2668 14.0867C15.1535 14.34 14.9868 14.5733 14.7868 14.76C14.5801 14.9467 14.3401 15.0933 14.0735 15.18C13.8601 15.2533 13.6468 15.2867 13.4268 15.2867ZM4.84681 2.00001H4.84014H2.83347C2.74014 2.00001 2.65347 2.02 2.56681 2.06C2.48014 2.09334 2.40014 2.14667 2.34014 2.21334C2.27347 2.28 2.22681 2.36001 2.20014 2.45334C2.17347 2.54 2.16014 2.63334 2.16681 2.72667C2.37347 4.66667 3.04681 6.56001 4.10681 8.20667C5.07347 9.72667 6.38681 11.04 7.90681 12.0067C9.54681 13.0733 11.4401 13.74 13.3735 13.9533C13.4535 13.96 13.5468 13.9467 13.6335 13.92C13.7201 13.8933 13.8001 13.84 13.8735 13.78C13.9468 13.72 14.0001 13.64 14.0335 13.5533C14.0735 13.4667 14.0868 13.3733 14.0868 13.28V11.28C14.0868 11.2733 14.0868 11.2667 14.0868 11.2667C14.0935 11.1 14.0335 10.9467 13.9268 10.82C13.8201 10.6933 13.6735 10.6133 13.5135 10.5933C12.8335 10.5067 12.1535 10.3333 11.5001 10.0933C11.3801 10.0467 11.2468 10.04 11.1268 10.0667C11.0001 10.0933 10.8868 10.1533 10.7935 10.2467L9.95347 11.0933C9.74014 11.3067 9.41347 11.3467 9.15347 11.2C7.38014 10.1933 5.91347 8.72001 4.90014 6.95334C4.76014 6.67334 4.80014 6.34667 5.01347 6.13334L5.86014 5.28667C5.94681 5.2 6.00681 5.08667 6.03347 4.96C6.06014 4.83334 6.05347 4.70667 6.00681 4.58667C5.76014 3.93334 5.59347 3.25334 5.50014 2.56667C5.48014 2.41334 5.40014 2.26667 5.28014 2.16C5.16014 2.06 5.00681 2.00001 4.84681 2.00001Z" fill="#4D97EE"/>
</g>
<defs>
<clipPath id="clip0_649_3468">
<rect width="16" height="16" fill="white" transform="translate(0.166748)"/>
</clipPath>
</defs>
</svg>
