<svg width="22" height="23" viewBox="0 0 22 23" fill="none" xmlns="http://www.w3.org/2000/svg">
<path d="M18.2324 21.5191C18.1499 21.5191 18.0674 21.5191 17.9758 21.51C15.0149 21.1891 12.1366 20.1625 9.65244 18.5491C7.34244 17.0825 5.34411 15.0841 3.87744 12.7741C2.26411 10.2808 1.23744 7.39329 0.925777 4.43246C0.88911 4.03829 0.934944 3.66246 1.05411 3.29579C1.17328 2.92913 1.37494 2.59913 1.63161 2.31496C1.88828 2.03079 2.19994 1.81079 2.54828 1.65496C2.90578 1.49913 3.28161 1.41663 3.66661 1.41663H6.41661C7.05828 1.41663 7.71828 1.64579 8.23161 2.08579C8.73578 2.51663 9.06578 3.12163 9.15744 3.78163C9.26744 4.59746 9.46911 5.40413 9.75328 6.16496C9.93661 6.65996 9.98244 7.19163 9.86328 7.70496C9.75328 8.21829 9.49661 8.69496 9.12994 9.06163L8.46994 9.72163C9.55161 11.4083 10.9816 12.8475 12.6774 13.9291L13.3374 13.2691C13.7133 12.8933 14.1899 12.6366 14.7033 12.5358C15.2166 12.4258 15.7483 12.4625 16.2433 12.6458C17.0041 12.93 17.8108 13.1316 18.6174 13.2416C19.2958 13.3333 19.9008 13.6725 20.3408 14.1858C20.7716 14.6991 21.0099 15.35 20.9916 16.0191V18.76C20.9916 19.145 20.9183 19.5116 20.7624 19.8691C20.6066 20.2175 20.3774 20.5383 20.1024 20.795C19.8183 21.0516 19.4883 21.2533 19.1216 21.3725C18.8283 21.4733 18.5349 21.5191 18.2324 21.5191ZM6.43494 3.24996H6.42578H3.66661C3.53828 3.24996 3.41911 3.27746 3.29994 3.33246C3.18078 3.37829 3.07078 3.45163 2.98828 3.54329C2.89661 3.63496 2.83244 3.74496 2.79578 3.87329C2.75911 3.99246 2.74078 4.12079 2.74994 4.24913C3.03411 6.91663 3.95994 9.51996 5.41744 11.7841C6.74661 13.8741 8.55244 15.68 10.6424 17.0091C12.8974 18.4758 15.5008 19.3925 18.1591 19.6858C18.2691 19.695 18.3974 19.6766 18.5166 19.64C18.6358 19.6033 18.7458 19.53 18.8466 19.4475C18.9474 19.365 19.0208 19.255 19.0666 19.1358C19.1216 19.0166 19.1399 18.8883 19.1399 18.76V16.01C19.1399 16.0008 19.1399 15.9916 19.1399 15.9916C19.1491 15.7625 19.0666 15.5516 18.9199 15.3775C18.7733 15.2033 18.5716 15.0933 18.3516 15.0658C17.4166 14.9466 16.4816 14.7083 15.5833 14.3783C15.4183 14.3141 15.2349 14.305 15.0699 14.3416C14.8958 14.3783 14.7399 14.4608 14.6116 14.5891L13.4566 15.7533C13.1633 16.0466 12.7141 16.1016 12.3566 15.9C9.91828 14.5158 7.90161 12.49 6.50828 10.0608C6.31578 9.67579 6.37078 9.22663 6.66411 8.93329L7.82828 7.76913C7.94744 7.64996 8.02994 7.49413 8.06661 7.31996C8.10328 7.14579 8.09411 6.97163 8.02994 6.80663C7.69078 5.90829 7.46161 4.97329 7.33328 4.02913C7.30578 3.81829 7.19578 3.61663 7.03078 3.46996C6.86578 3.33246 6.65494 3.24996 6.43494 3.24996Z" fill="#4D97EE"/>
</svg>
