<svg width="13" height="12" viewBox="0 0 13 12" fill="none" xmlns="http://www.w3.org/2000/svg">
<path fill-rule="evenodd" clip-rule="evenodd" d="M6.5 1C5.43913 1 4.42172 1.42143 3.67157 2.17157C2.92143 2.92172 2.5 3.93913 2.5 5C2.5 6.54903 3.50787 8.05212 4.61298 9.21863C5.15531 9.79109 5.69933 10.2597 6.10834 10.5854C6.26056 10.7066 6.39351 10.8076 6.5 10.8863C6.60649 10.8076 6.73944 10.7066 6.89166 10.5854C7.30067 10.2597 7.84469 9.79109 8.38702 9.21863C9.49213 8.05212 10.5 6.54903 10.5 5C10.5 3.93913 10.0786 2.92172 9.32843 2.17157C8.57828 1.42143 7.56087 1 6.5 1ZM6.5 11.5C6.22265 11.916 6.22252 11.9159 6.22238 11.9158L6.22095 11.9149L6.21762 11.9127L6.20616 11.9049C6.19642 11.8983 6.18254 11.8888 6.16478 11.8765C6.12926 11.8519 6.07823 11.8161 6.0139 11.7696C5.88527 11.6767 5.70318 11.5411 5.48541 11.3677C5.05067 11.0215 4.46969 10.5214 3.88702 9.90637C2.74213 8.69788 1.5 6.95097 1.5 5C1.5 3.67392 2.02678 2.40215 2.96447 1.46447C3.90215 0.526784 5.17392 0 6.5 0C7.82608 0 9.09785 0.526784 10.0355 1.46447C10.9732 2.40215 11.5 3.67392 11.5 5C11.5 6.95097 10.2579 8.69788 9.11298 9.90637C8.53031 10.5214 7.94933 11.0215 7.51459 11.3677C7.29682 11.5411 7.11473 11.6767 6.9861 11.7696C6.92177 11.8161 6.87074 11.8519 6.83522 11.8765C6.81746 11.8888 6.80358 11.8983 6.79384 11.9049L6.78238 11.9127L6.77905 11.9149L6.77799 11.9156C6.77785 11.9157 6.77735 11.916 6.5 11.5ZM6.5 11.5L6.77735 11.916C6.6094 12.028 6.39033 12.0278 6.22238 11.9158L6.5 11.5Z" fill="white"/>
<path fill-rule="evenodd" clip-rule="evenodd" d="M6.5 4C5.94772 4 5.5 4.44772 5.5 5C5.5 5.55228 5.94772 6 6.5 6C7.05228 6 7.5 5.55228 7.5 5C7.5 4.44772 7.05228 4 6.5 4ZM4.5 5C4.5 3.89543 5.39543 3 6.5 3C7.60457 3 8.5 3.89543 8.5 5C8.5 6.10457 7.60457 7 6.5 7C5.39543 7 4.5 6.10457 4.5 5Z" fill="white"/>
</svg>
