<svg width="17" height="16" viewBox="0 0 17 16" fill="none" xmlns="http://www.w3.org/2000/svg">
<path fill-rule="evenodd" clip-rule="evenodd" d="M8.50004 1.33333C7.08555 1.33333 5.729 1.89524 4.7288 2.89543C3.72861 3.89562 3.16671 5.25218 3.16671 6.66667C3.16671 8.73204 4.51053 10.7362 5.98401 12.2915C6.70712 13.0548 7.43249 13.6796 7.97783 14.1139C8.18078 14.2755 8.35806 14.4101 8.50004 14.5151C8.64202 14.4101 8.8193 14.2755 9.02226 14.1139C9.5676 13.6796 10.293 13.0548 11.0161 12.2915C12.4895 10.7362 13.8334 8.73204 13.8334 6.66667C13.8334 5.25218 13.2715 3.89562 12.2713 2.89543C11.2711 1.89524 9.91453 1.33333 8.50004 1.33333ZM8.50004 15.3333C8.13024 15.888 8.13007 15.8879 8.12988 15.8878L8.12797 15.8865L8.12353 15.8835L8.10825 15.8732C8.09527 15.8644 8.07676 15.8517 8.05308 15.8353C8.00573 15.8025 7.93768 15.7547 7.8519 15.6928C7.6804 15.5689 7.43761 15.3881 7.14726 15.1569C6.5676 14.6954 5.79297 14.0286 5.01607 13.2085C3.48955 11.5972 1.83337 9.26796 1.83337 6.66667C1.83337 4.89856 2.53575 3.20286 3.786 1.95262C5.03624 0.702379 6.73193 0 8.50004 0C10.2682 0 11.9638 0.702379 13.2141 1.95262C14.4643 3.20286 15.1667 4.89856 15.1667 6.66667C15.1667 9.26796 13.5105 11.5972 11.984 13.2085C11.2071 14.0286 10.4325 14.6954 9.85283 15.1569C9.56247 15.3881 9.31968 15.5689 9.14818 15.6928C9.0624 15.7547 8.99435 15.8025 8.947 15.8353C8.92332 15.8517 8.90481 15.8644 8.89183 15.8732L8.87655 15.8835L8.87211 15.8865L8.8707 15.8875C8.87051 15.8876 8.86984 15.888 8.50004 15.3333ZM8.50004 15.3333L8.86984 15.888C8.64591 16.0373 8.35381 16.0371 8.12988 15.8878L8.50004 15.3333Z" fill="#4D97EE"/>
<path fill-rule="evenodd" clip-rule="evenodd" d="M8.50004 5.33333C7.76366 5.33333 7.16671 5.93029 7.16671 6.66667C7.16671 7.40305 7.76366 8 8.50004 8C9.23642 8 9.83337 7.40305 9.83337 6.66667C9.83337 5.93029 9.23642 5.33333 8.50004 5.33333ZM5.83337 6.66667C5.83337 5.19391 7.02728 4 8.50004 4C9.9728 4 11.1667 5.19391 11.1667 6.66667C11.1667 8.13943 9.9728 9.33333 8.50004 9.33333C7.02728 9.33333 5.83337 8.13943 5.83337 6.66667Z" fill="#4D97EE"/>
</svg>
