<svg width="25" height="25" viewBox="0 0 25 25" fill="none" xmlns="http://www.w3.org/2000/svg">
<path fill-rule="evenodd" clip-rule="evenodd" d="M4.16669 12.5C4.16669 11.9247 4.63306 11.4583 5.20835 11.4583H19.7917C20.367 11.4583 20.8334 11.9247 20.8334 12.5C20.8334 13.0753 20.367 13.5417 19.7917 13.5417H5.20835C4.63306 13.5417 4.16669 13.0753 4.16669 12.5Z" fill="black"/>
<path fill-rule="evenodd" clip-rule="evenodd" d="M13.2366 4.47175C13.6434 4.87855 13.6434 5.5381 13.2366 5.94489L6.68149 12.5L13.2366 19.0551C13.6434 19.4619 13.6434 20.1214 13.2366 20.5282C12.8298 20.935 12.1702 20.935 11.7635 20.5282L4.47178 13.2366C4.06499 12.8298 4.06499 12.1702 4.47178 11.7634L11.7635 4.47175C12.1702 4.06496 12.8298 4.06496 13.2366 4.47175Z" fill="black"/>
</svg>
