<svg width="25" height="25" viewBox="0 0 25 25" fill="none" xmlns="http://www.w3.org/2000/svg">
<path fill-rule="evenodd" clip-rule="evenodd" d="M4.16675 12.5C4.16675 11.9247 4.63312 11.4583 5.20841 11.4583H19.7917C20.367 11.4583 20.8334 11.9247 20.8334 12.5C20.8334 13.0753 20.367 13.5417 19.7917 13.5417H5.20841C4.63312 13.5417 4.16675 13.0753 4.16675 12.5Z" fill="black"/>
<path fill-rule="evenodd" clip-rule="evenodd" d="M11.7633 4.47175C12.1701 4.06496 12.8297 4.06496 13.2365 4.47175L20.5282 11.7634C20.935 12.1702 20.935 12.8298 20.5282 13.2366L13.2365 20.5282C12.8297 20.935 12.1701 20.935 11.7633 20.5282C11.3566 20.1214 11.3566 19.4619 11.7633 19.0551L18.3184 12.5L11.7633 5.94489C11.3566 5.5381 11.3566 4.87855 11.7633 4.47175Z" fill="black"/>
</svg>
