<svg width="16" height="16" viewBox="0 0 16 16" fill="none" xmlns="http://www.w3.org/2000/svg">
<g clip-path="url(#clip0_270_8701)">
<path d="M13.2601 15.2866C13.2001 15.2866 13.1401 15.2866 13.0734 15.28C10.9201 15.0466 8.82673 14.3 7.02006 13.1266C5.34006 12.06 3.88673 10.6066 2.82006 8.92663C1.64673 7.11329 0.900059 5.01329 0.673392 2.85996C0.646725 2.57329 0.680059 2.29996 0.766725 2.03329C0.853392 1.76663 1.00006 1.52663 1.18673 1.31996C1.37339 1.11329 1.60006 0.953293 1.85339 0.839959C2.11339 0.726626 2.38673 0.666626 2.66673 0.666626H4.66673C5.13339 0.666626 5.61339 0.833293 5.98673 1.15329C6.35339 1.46663 6.59339 1.90663 6.66006 2.38663C6.74006 2.97996 6.88673 3.56663 7.09339 4.11996C7.22673 4.47996 7.26006 4.86663 7.17339 5.23996C7.09339 5.61329 6.90673 5.95996 6.64006 6.22663L6.16006 6.70663C6.94673 7.93329 7.98673 8.97996 9.22006 9.76663L9.70006 9.28663C9.97339 9.01329 10.3201 8.82663 10.6934 8.75329C11.0667 8.67329 11.4534 8.69996 11.8134 8.83329C12.3667 9.03996 12.9534 9.18663 13.5401 9.26663C14.0334 9.33329 14.4734 9.57996 14.7934 9.95329C15.1067 10.3266 15.2801 10.8 15.2667 11.2866V13.28C15.2667 13.56 15.2134 13.8266 15.1001 14.0866C14.9867 14.34 14.8201 14.5733 14.6201 14.76C14.4134 14.9466 14.1734 15.0933 13.9067 15.18C13.6934 15.2533 13.4801 15.2866 13.2601 15.2866ZM4.68006 1.99996H4.67339H2.66673C2.57339 1.99996 2.48673 2.01996 2.40006 2.05996C2.31339 2.09329 2.23339 2.14663 2.17339 2.21329C2.10673 2.27996 2.06006 2.35996 2.03339 2.45329C2.00673 2.53996 1.99339 2.63329 2.00006 2.72663C2.20673 4.66663 2.88006 6.55996 3.94006 8.20663C4.90673 9.72663 6.22006 11.04 7.74006 12.0066C9.38006 13.0733 11.2734 13.74 13.2067 13.9533C13.2867 13.96 13.3801 13.9466 13.4667 13.92C13.5534 13.8933 13.6334 13.84 13.7067 13.78C13.7801 13.72 13.8334 13.64 13.8667 13.5533C13.9067 13.4666 13.9201 13.3733 13.9201 13.28V11.28C13.9201 11.2733 13.9201 11.2666 13.9201 11.2666C13.9267 11.1 13.8667 10.9466 13.7601 10.82C13.6534 10.6933 13.5067 10.6133 13.3467 10.5933C12.6667 10.5066 11.9867 10.3333 11.3334 10.0933C11.2134 10.0466 11.0801 10.04 10.9601 10.0666C10.8334 10.0933 10.7201 10.1533 10.6267 10.2466L9.78673 11.0933C9.57339 11.3066 9.24673 11.3466 8.98673 11.2C7.21339 10.1933 5.74673 8.71996 4.73339 6.95329C4.59339 6.67329 4.63339 6.34663 4.84673 6.13329L5.69339 5.28663C5.78006 5.19996 5.84006 5.08663 5.86673 4.95996C5.89339 4.83329 5.88673 4.70663 5.84006 4.58663C5.59339 3.93329 5.42673 3.25329 5.33339 2.56663C5.31339 2.41329 5.23339 2.26663 5.11339 2.15996C4.99339 2.05996 4.84006 1.99996 4.68006 1.99996Z" fill="#4D97EE"/>
</g>
<defs>
<clipPath id="clip0_270_8701">
<rect width="16" height="16" fill="white"/>
</clipPath>
</defs>
</svg>
