<svg width="17" height="16" viewBox="0 0 17 16" fill="none" xmlns="http://www.w3.org/2000/svg">
<path fill-rule="evenodd" clip-rule="evenodd" d="M3.47631 10.3097C4.10143 9.68456 4.94928 9.33337 5.83333 9.33337H11.1667C12.0507 9.33337 12.8986 9.68456 13.5237 10.3097C14.1488 10.9348 14.5 11.7827 14.5 12.6667V14C14.5 14.3682 14.2015 14.6667 13.8333 14.6667C13.4651 14.6667 13.1667 14.3682 13.1667 14V12.6667C13.1667 12.1363 12.956 11.6276 12.5809 11.2525C12.2058 10.8774 11.6971 10.6667 11.1667 10.6667H5.83333C5.3029 10.6667 4.79419 10.8774 4.41912 11.2525C4.04405 11.6276 3.83333 12.1363 3.83333 12.6667V14C3.83333 14.3682 3.53486 14.6667 3.16667 14.6667C2.79848 14.6667 2.5 14.3682 2.5 14V12.6667C2.5 11.7827 2.85119 10.9348 3.47631 10.3097Z" fill="#4D97EE"/>
<path fill-rule="evenodd" clip-rule="evenodd" d="M8.49996 2.66671C7.39539 2.66671 6.49996 3.56214 6.49996 4.66671C6.49996 5.77128 7.39539 6.66671 8.49996 6.66671C9.60453 6.66671 10.5 5.77128 10.5 4.66671C10.5 3.56214 9.60453 2.66671 8.49996 2.66671ZM5.16663 4.66671C5.16663 2.82576 6.65901 1.33337 8.49996 1.33337C10.3409 1.33337 11.8333 2.82576 11.8333 4.66671C11.8333 6.50766 10.3409 8.00004 8.49996 8.00004C6.65901 8.00004 5.16663 6.50766 5.16663 4.66671Z" fill="#4D97EE"/>
</svg>
