<svg width="25" height="24" viewBox="0 0 25 24" fill="none" xmlns="http://www.w3.org/2000/svg">
<path fill-rule="evenodd" clip-rule="evenodd" d="M12.9521 11.1417C10.5964 11.1417 8.33451 12.0654 6.65215 13.7144C6.25774 14.101 5.62461 14.0947 5.23801 13.7003C4.85141 13.3059 4.85774 12.6728 5.25215 12.2862C7.30837 10.2707 10.0729 9.14172 12.9521 9.14172C15.8314 9.14172 18.5959 10.2707 20.6521 12.2862C21.0466 12.6728 21.0529 13.3059 20.6663 13.7003C20.2797 14.0947 19.6466 14.101 19.2521 13.7144C17.5698 12.0654 15.3079 11.1417 12.9521 11.1417Z" fill="black"/>
<path fill-rule="evenodd" clip-rule="evenodd" d="M12.9521 16.071C11.9051 16.071 10.8999 16.4816 10.1521 17.2145C9.75774 17.6011 9.12461 17.5947 8.73801 17.2003C8.35141 16.8059 8.35774 16.1728 8.75215 15.7862C9.87372 14.6868 11.3816 14.071 12.9521 14.071C14.5227 14.071 16.0306 14.6868 17.1521 15.7862C17.5466 16.1728 17.5529 16.8059 17.1663 17.2003C16.7797 17.5947 16.1466 17.6011 15.7521 17.2145C15.0044 16.4816 13.9992 16.071 12.9521 16.071Z" fill="black"/>
<path fill-rule="evenodd" clip-rule="evenodd" d="M12.9522 6.00067C9.50847 6.00067 6.1856 7.2699 3.61882 9.56569C3.20718 9.93388 2.57499 9.89865 2.2068 9.487C1.83861 9.07535 1.87384 8.44316 2.28549 8.07498C5.21894 5.45122 9.01652 4.00067 12.9522 4.00067C16.8878 4.00067 20.6854 5.45122 23.6188 8.07498C24.0305 8.44316 24.0657 9.07535 23.6975 9.487C23.3293 9.89865 22.6971 9.93388 22.2855 9.56569C19.7187 7.2699 16.3958 6.00067 12.9522 6.00067Z" fill="black"/>
<path fill-rule="evenodd" clip-rule="evenodd" d="M11.9521 20.0003C11.9521 19.448 12.3999 19.0003 12.9521 19.0003H12.9621C13.5144 19.0003 13.9621 19.448 13.9621 20.0003C13.9621 20.5526 13.5144 21.0003 12.9621 21.0003H12.9521C12.3999 21.0003 11.9521 20.5526 11.9521 20.0003Z" fill="black"/>
</svg>
