<svg width="290" height="543" fill="none" xmlns="http://www.w3.org/2000/svg"><path d="M297.531 20.054c-22.119-1.73-43.91-6.977-66.263-8.499-46.407-3.16-92.911-3.993-139.362-1.39-19.938 1.119-39.664 4.43-59.589 5.394-4.41.214-6.737 2.86-10.936 3.024-2.214.086-8.725-1.349-6.755 2.37 6.253 11.801 5.996 30.321 6.916 43.229 2.959 41.549 1.496 84.093.643 125.683-.756 36.904-5.216 73.553-5.468 110.483-.186 27.291 0 54.59 0 81.882 0 20.361 4.26 39.772 4.342 60.308.025 6.238 0 12.476 0 18.714 0 .797-.463 2.369.322 2.369 14.141 0 29.708-4.866 43.746-6.7 31.07-4.06 62.365-7.064 93.686-7.927 44.363-1.222 88.666.672 132.445 8.907 34.748 6.536 73.582 17.467 106.311 31.707 83.55 36.351-7.628.395 56.291 34.975" stroke="#fff" stroke-linecap="round"/><path d="M297.416 12.989c-23.145-1.813-45.947-7.315-69.338-8.911C179.518.765 130.856-.11 82.25 2.62 61.386 3.793 40.745 7.265 19.896 8.276c-4.615.224-7.05 2.999-11.444 3.17-2.316.091-9.13-1.413-7.069 2.486C7.927 26.306 7.659 45.724 8.62 59.258c3.097 43.566 1.566 88.174.673 131.782-.791 38.694-5.458 77.122-5.722 115.844-.194 28.615 0 57.238 0 85.855 0 21.349 4.458 41.702 4.544 63.235.026 6.54 0 13.081 0 19.621 0 .836-.484 2.485.337 2.485 14.797 0 31.086-5.103 45.776-7.026 32.512-4.256 65.259-7.407 98.033-8.311 46.422-1.282 92.781.704 138.592 9.339 36.36 6.853 76.995 18.314 111.243 33.245 87.428 38.116-7.981.415 58.904 36.673" stroke="#fff" stroke-linecap="round"/></svg>