<svg width="802" height="404" fill="none" xmlns="http://www.w3.org/2000/svg"><path d="M-109.865 15.193c67.943-1.288 134.88-5.197 203.543-6.33C236.227 6.508 379.074 5.887 521.76 7.827c61.245.832 121.837 3.3 183.041 4.017 13.547.16 20.697 2.13 33.594 2.253 6.799.064 26.802-1.005 20.75 1.765-19.209 8.791-18.42 22.587-21.244 32.202-9.089 30.95-4.595 62.642-1.976 93.623 2.324 27.491 16.024 54.791 16.797 82.301.572 20.33 0 40.665 0 60.995 0 15.168-13.086 29.627-13.339 44.925-.076 4.646 0 9.293 0 13.94 0 .594 1.423 1.765-.988 1.765-43.438 0-91.254-3.625-134.378-4.991-95.436-3.024-191.569-5.262-287.776-5.905-136.272-.91-272.36.501-406.839 6.635-106.736 4.869-226.022 13.011-326.558 23.619-256.645 27.079 23.431.295-172.913 26.054" stroke="#fff" stroke-linecap="round"/><path d="M-109.513 9.93c71.095-1.35 141.138-5.448 212.988-6.637C252.638.825 402.115.173 551.422 2.208c64.087.873 127.491 3.46 191.534 4.212 14.176.167 21.658 2.234 35.154 2.362 7.114.068 28.045-1.053 21.712 1.85-20.1 9.219-19.275 23.684-22.229 33.766-9.511 32.452-4.809 65.681-2.068 98.166 2.432 28.824 16.767 57.45 17.576 86.294.599 21.316 0 42.638 0 63.955 0 15.903-13.693 31.065-13.957 47.104-.081 4.872 0 9.745 0 14.617 0 .623 1.488 1.851-1.034 1.851-45.454 0-95.489-3.801-140.614-5.234-99.865-3.171-200.459-5.517-301.13-6.191-142.596-.955-284.999.525-425.718 6.957-111.689 5.105-236.511 13.643-341.711 24.765-268.555 28.393 24.517.309-180.937 27.318" stroke="#fff" stroke-linecap="round"/></svg>