<svg width="386" height="351" fill="none" xmlns="http://www.w3.org/2000/svg"><path d="M131.867 16.29c18.516-1.102 36.758-4.448 55.47-5.418C226.185 8.857 265.115 8.325 304 9.986c16.691.713 33.204 2.824 49.883 3.439 3.692.136 5.641 1.823 9.155 1.928 1.853.055 7.305-.86 5.655 1.511-5.235 7.525-5.02 19.334-5.789 27.565-2.477 26.493-1.253 53.62-.539 80.14.634 23.532 4.367 46.901 4.578 70.449.156 17.402 0 34.809 0 52.211 0 12.984-3.567 25.361-3.635 38.455-.021 3.978 0 7.956 0 11.933 0 .508.387 1.511-.27 1.511-11.837 0-24.869-3.103-36.621-4.273-26.009-2.588-52.207-4.504-78.426-5.054-37.137-.779-74.224.429-110.873 5.68-29.088 4.167-61.597 11.137-88.995 20.217C-21.82 338.877 54.508 315.95 1 338" stroke="#fff" stroke-linecap="round"/><path d="M137.557 8.734c19.321-1.17 38.356-4.719 57.882-5.748 40.537-2.138 81.159-2.702 121.735-.94 17.416.756 34.647 2.996 52.052 3.648 3.852.144 5.886 1.934 9.553 2.045 1.934.059 7.622-.912 5.901 1.603-5.463 7.983-5.238 20.51-6.041 29.24-2.585 28.105-1.307 56.881-.562 85.013.661 24.962 4.557 49.752 4.776 74.731.163 18.46 0 36.925 0 55.385 0 13.773-3.721 26.903-3.793 40.793-.022 4.219 0 8.439 0 12.658 0 .539.405 1.603-.281 1.603-12.352 0-25.95-3.292-38.213-4.532-27.14-2.746-54.477-4.779-81.836-5.362-38.752-.827-77.452.455-115.694 6.025-30.353 4.421-64.275 11.814-92.864 21.446C-22.811 350.931 56.835 326.61 1 350" stroke="#fff" stroke-linecap="round"/></svg>