<svg width="16" height="13" fill="none" xmlns="http://www.w3.org/2000/svg"><path d="M15 1.004c-4.266 0-7.854-.218-11.445 2.549-1.546 1.191-3.688 4.08-1.84 6.249 4.991 5.861 11.027-8.707 7.923-8.798-3.635-.107-6.883 3.225-6.883 6.99 0 3.29 6.522 1.33 7.843.287 3.097-2.447 5.186-6.735.08-6.537-3.522.137-8.213 2.659-7.923 6.825.66 9.493 16.412-7.483 5.802-7.483-4.458 0-5.177 6.443-4.201 9.785.942 3.229 7.64-1.32 8.323-3.042.988-2.49-3.435-4.327-5.162-3.372-1.901 1.052-1.504 7.396 1.04 6.743 1.497-.384 5.07-4.92 1.801-5.016C8.43 6.128 2.755 5 2.755 7.664" stroke="#fff" stroke-linecap="round"/></svg>