<svg width="18" height="18" fill="none" xmlns="http://www.w3.org/2000/svg"><path fill-rule="evenodd" clip-rule="evenodd" d="M.75.75a.75.75 0 000 1.5h.034c.988 0 1.86.644 2.15 1.588l1.698 5.515A3.75 3.75 0 008.216 12h3.802a3.75 3.75 0 003.592-2.672l.836-2.788A2.75 2.75 0 0013.812 3h-9.59A3.75 3.75 0 00.783.75H.75zm5.315 8.162L4.708 4.5h9.104a1.25 1.25 0 011.197 1.61l-.836 2.787a2.25 2.25 0 01-2.155 1.603H8.216a2.25 2.25 0 01-2.15-1.588zM7.5 14.25a.75.75 0 100 1.5.75.75 0 000-1.5zM5.25 15a2.25 2.25 0 114.5 0 2.25 2.25 0 01-4.5 0zm8.25-.75a.75.75 0 100 1.5.75.75 0 000-1.5zm-2.25.75a2.25 2.25 0 114.5 0 2.25 2.25 0 01-4.5 0z" fill="#fff"/></svg>