<svg width="20" height="20" fill="none" xmlns="http://www.w3.org/2000/svg"><path fill-rule="evenodd" clip-rule="evenodd" d="M1.179 1.216a.75.75 0 000 1.5h.228c.987 0 1.86.645 2.15 1.589l1.955 6.356a3.75 3.75 0 003.585 2.648h4.512a3.75 3.75 0 003.592-2.673l1.03-3.435a2.75 2.75 0 00-2.634-3.54H4.922a3.75 3.75 0 00-3.515-2.445h-.228zm5.767 9.004L5.39 5.16h10.207a1.25 1.25 0 011.197 1.61l-1.03 3.435a2.25 2.25 0 01-2.155 1.604H9.097a2.25 2.25 0 01-2.15-1.589zm1.566 5.53a.88.88 0 100 1.759.88.88 0 000-1.759zm-2.38.88a2.38 2.38 0 114.76 0 2.38 2.38 0 01-4.76 0zm8.895-.875a.88.88 0 100 1.759.88.88 0 000-1.76zm-2.38.88a2.38 2.38 0 114.76-.001 2.38 2.38 0 01-4.76 0z" fill="#000"/></svg>