<svg width="28" height="26" fill="none" xmlns="http://www.w3.org/2000/svg"><path fill-rule="evenodd" clip-rule="evenodd" d="M13.609 2.555h-.75v-.003c-2.48.003-2.956.019-4.183.072-1.297.058-2.002.267-2.47.443a4.146 4.146 0 00-1.53.962 3.97 3.97 0 00-.997 1.477c-.182.453-.398 1.133-.458 2.385-.064 1.354-.076 1.759-.076 5.19 0 3.43.012 3.837.076 5.191.06 1.253.276 1.933.458 2.385.242.6.53 1.027.996 1.476.466.45.91.728 1.53.961.47.176 1.174.385 2.47.443 1.403.062 1.824.075 5.377.075s3.974-.013 5.377-.075c1.297-.057 2.002-.266 2.47-.443a4.13 4.13 0 001.53-.96c.465-.45.754-.877.995-1.476.182-.452.399-1.132.458-2.385.064-1.354.078-1.76.078-5.19 0-3.428-.014-3.834-.078-5.189-.06-1.252-.276-1.932-.458-2.384a3.977 3.977 0 00-.996-1.478 4.132 4.132 0 00-1.529-.96c-.469-.176-1.173-.386-2.47-.443-1.403-.061-1.824-.074-5.377-.074h-.443zm5.949 3.674c0-.851.715-1.54 1.596-1.54.882 0 1.597.69 1.597 1.54 0 .851-.715 1.542-1.597 1.542-.88 0-1.596-.69-1.596-1.542zm-5.506.26c-3.773 0-6.833 2.955-6.833 6.598s3.06 6.596 6.833 6.596c3.774 0 6.832-2.953 6.832-6.596 0-3.644-3.059-6.597-6.832-6.597z" fill="#fff"/><path fill-rule="evenodd" clip-rule="evenodd" d="M14.052.24c-3.613 0-4.067.015-5.486.078C7.15.38 6.183.597 5.336.915A6.544 6.544 0 002.98 2.396a6.289 6.289 0 00-1.536 2.275C1.114 5.49.89 6.422.826 7.79c-.064 1.37-.08 1.809-.08 5.298s.016 3.925.08 5.295c.065 1.368.29 2.302.618 3.118.34.845.795 1.562 1.535 2.276a6.543 6.543 0 002.356 1.483c.847.317 1.814.534 3.23.597 1.42.062 1.872.077 5.486.077 3.613 0 4.065-.015 5.485-.077 1.416-.063 2.384-.28 3.23-.597a6.538 6.538 0 002.356-1.483 6.29 6.29 0 001.536-2.275c.327-.817.551-1.751.618-3.118.064-1.37.08-1.807.08-5.296 0-3.49-.016-3.927-.08-5.297-.067-1.368-.291-2.301-.618-3.118a6.288 6.288 0 00-1.536-2.276A6.531 6.531 0 0022.766.915C21.918.597 20.95.38 19.534.318 18.114.255 17.663.24 14.048.24h.004zM12.86 2.555h1.193c3.553 0 3.974.013 5.377.074 1.297.057 2.001.267 2.47.443.621.232 1.064.51 1.53.96.465.45.753.878.995 1.478.182.452.399 1.132.458 2.384.064 1.355.078 1.761.078 5.19 0 3.428-.014 3.835-.078 5.19-.06 1.252-.276 1.932-.458 2.384-.241.6-.53 1.026-.996 1.476a4.13 4.13 0 01-1.529.96c-.468.177-1.173.386-2.47.443-1.403.062-1.824.075-5.377.075s-3.974-.013-5.376-.075c-1.297-.058-2.002-.267-2.47-.443a4.14 4.14 0 01-1.53-.96 3.972 3.972 0 01-.997-1.477c-.182-.453-.399-1.132-.458-2.385-.064-1.354-.076-1.76-.076-5.191s.012-3.836.076-5.19c.06-1.252.276-1.932.458-2.385.242-.6.53-1.028.996-1.477a4.16 4.16 0 011.53-.962c.47-.176 1.174-.385 2.47-.443 1.228-.053 1.704-.07 4.184-.072v.003z" fill="#fff"/><path fill-rule="evenodd" clip-rule="evenodd" d="M7.22 13.087c0-3.643 3.059-6.597 6.832-6.597 3.773 0 6.832 2.953 6.832 6.597 0 3.643-3.058 6.596-6.832 6.596-3.773 0-6.833-2.953-6.833-6.596zm11.267 0c0-2.365-1.985-4.282-4.435-4.282-2.45 0-4.435 1.917-4.435 4.282s1.986 4.282 4.435 4.282c2.45 0 4.435-1.917 4.435-4.282z" fill="#fff"/></svg>