<svg width="14" height="14" fill="none" xmlns="http://www.w3.org/2000/svg"><path d="M9.812 13.97a5.818 5.818 0 01-2.588-1.067 14.577 14.577 0 01-2.434-2.19c-.895-.98-1.806-1.947-2.596-3.027-.622-.868-1.178-1.778-1.481-2.824A4.558 4.558 0 01.552 2.8c.136-.824.563-1.495 1.146-2.056a4.9 4.9 0 01.78-.584.987.987 0 011.104.019A4.037 4.037 0 015.27 2.252a.767.767 0 01-.08.758c-.196.27-.4.534-.596.804-.174.24-.354.474-.509.726a.68.68 0 00.007.784c.39.56.767 1.137 1.19 1.67a21.022 21.022 0 002.536 2.692c.205.18.425.34.644.504a.608.608 0 00.663.061c.234-.118.462-.249.683-.392.306-.2.607-.405.907-.603a.785.785 0 01.834-.017 4.106 4.106 0 011.803 1.82 1.142 1.142 0 01-.098 1.27c-.756 1.016-1.722 1.643-3.006 1.671a4.18 4.18 0 01-.436-.03z" fill="#fff"/></svg>