<svg width="48" height="46" fill="none" xmlns="http://www.w3.org/2000/svg"><path d="M25.858 16.074c0 1.292.495 2.47 1.328 3.382l-1.487 2.451a6.393 6.393 0 00-1.823-.247 9.39 9.39 0 00-1.824.19l-1.446-2.337c.872-.912 1.347-2.128 1.347-3.439 0-2.83-2.358-5.13-5.311-5.13-2.954 0-5.332 2.3-5.332 5.13 0 2.831 2.398 5.13 5.351 5.13.337 0 .734-.038 1.09-.095l1.427 2.375a6.612 6.612 0 00-1.882 3.116H14.54a5.154 5.154 0 00-1.94-2.58 5.518 5.518 0 00-3.154-.992c-2.953 0-5.332 2.3-5.332 5.13 0 2.831 2.379 5.092 5.332 5.092 2.378 0 4.38-1.444 5.094-3.496h2.774a6.485 6.485 0 002.404 3.529 6.97 6.97 0 004.157 1.373c3.171 0 5.827-2.09 6.56-4.902h2.874a5.136 5.136 0 001.956 2.54 5.495 5.495 0 003.138.956c2.953 0 5.351-2.26 5.351-5.092 0-2.83-2.398-5.13-5.35-5.13-2.38 0-4.401 1.501-5.095 3.572h-2.854a6.512 6.512 0 00-1.863-3.116l1.447-2.394a5.75 5.75 0 001.15.114c2.953 0 5.351-2.299 5.351-5.13 0-2.83-2.398-5.13-5.351-5.13-2.954 0-5.332 2.3-5.332 5.13zm-11.833 0c0-1.406 1.17-2.527 2.617-2.527 1.446 0 2.655 1.121 2.655 2.527 0 1.406-1.189 2.527-2.655 2.527-1.467 0-2.617-1.12-2.617-2.527zM9.447 30.685c-1.467 0-2.656-1.12-2.656-2.527 0-1.406 1.19-2.508 2.656-2.508 1.467 0 2.656 1.102 2.656 2.508s-1.19 2.527-2.656 2.527zm28.957-5.035c1.467 0 2.656 1.102 2.656 2.508s-1.19 2.527-2.656 2.527c-1.467 0-2.656-1.12-2.656-2.527 0-1.406 1.19-2.508 2.656-2.508zm-10.723 2.508c0 .48-.098.954-.29 1.397a3.645 3.645 0 01-.825 1.183 3.823 3.823 0 01-1.235.79 3.95 3.95 0 01-2.914 0 3.821 3.821 0 01-1.234-.791 3.642 3.642 0 01-.825-1.184 3.518 3.518 0 01-.29-1.397c0-.967.402-1.895 1.116-2.58a3.892 3.892 0 012.692-1.068c1.01 0 1.977.385 2.691 1.07a3.574 3.574 0 011.114 2.58zm6.165-12.084c0 1.406-1.19 2.527-2.656 2.527-1.467 0-2.637-1.12-2.637-2.527 0-1.406 1.19-2.527 2.636-2.527 1.447 0 2.657 1.121 2.657 2.527z" fill="#FFF"/></svg>