<svg width="64" height="40" fill="none" xmlns="http://www.w3.org/2000/svg"><path d="M35.071 8.79a8.51 8.51 0 002.122 5.636l-2.375 4.085c-.918-.285-1.9-.411-2.913-.411-1.014 0-1.995.126-2.914.316l-2.311-3.895c1.393-1.52 2.153-3.546 2.153-5.731 0-4.719-3.768-8.55-8.487-8.55-4.718 0-8.518 3.831-8.518 8.55 0 4.718 3.832 8.55 8.55 8.55.538 0 1.172-.064 1.742-.159l2.28 3.959c-1.425 1.361-2.47 3.166-3.009 5.193H16.99a8.566 8.566 0 00-8.14-5.953c-4.718 0-8.518 3.831-8.518 8.55 0 4.718 3.8 8.486 8.518 8.486 3.8 0 6.999-2.406 8.139-5.826h4.433a10.833 10.833 0 0010.482 8.17c5.066 0 9.31-3.484 10.481-8.17h4.592a8.525 8.525 0 008.138 5.826c4.719 0 8.55-3.768 8.55-8.486 0-4.719-3.831-8.55-8.55-8.55-3.8 0-7.03 2.501-8.138 5.953h-4.56a10.95 10.95 0 00-2.977-5.193l2.312-3.99c.602.126 1.203.19 1.837.19 4.718 0 8.55-3.832 8.55-8.55 0-4.719-3.832-8.55-8.55-8.55-4.719 0-8.519 3.831-8.519 8.55zm-18.905 0a4.183 4.183 0 014.18-4.212c2.312 0 4.244 1.868 4.244 4.212 0 2.343-1.9 4.211-4.244 4.211-2.343 0-4.18-1.868-4.18-4.211zM8.851 33.14c-2.343 0-4.243-1.868-4.243-4.211 0-2.344 1.9-4.18 4.243-4.18 2.344 0 4.244 1.836 4.244 4.18 0 2.343-1.9 4.211-4.244 4.211zm46.265-8.391c2.344 0 4.244 1.836 4.244 4.18 0 2.343-1.9 4.211-4.244 4.211-2.343 0-4.243-1.868-4.243-4.211 0-2.344 1.9-4.18 4.243-4.18zm-17.131 4.18a6.08 6.08 0 01-10.383 4.297 6.084 6.084 0 01.002-8.6 6.082 6.082 0 0110.38 4.303zm9.848-20.14c0 2.343-1.9 4.211-4.243 4.211a4.19 4.19 0 01-4.212-4.211 4.21 4.21 0 014.212-4.212c2.311 0 4.243 1.868 4.243 4.212z" fill="#F47723"/></svg>