<svg width="21" height="22" fill="none" xmlns="http://www.w3.org/2000/svg"><path d="M17.61 4.66h-3.214v-.642a1.936 1.936 0 00-1.929-1.929H8.611a1.936 1.936 0 00-1.928 1.929v.642H3.469a.643.643 0 000 1.286h.643v11.569A1.285 1.285 0 005.398 18.8H15.68a1.286 1.286 0 001.286-1.285V5.945h.642a.643.643 0 000-1.285zm-9.642-.642a.643.643 0 01.643-.643h3.856a.643.643 0 01.643.643v.642H7.968v-.642zm7.713 13.497H5.398V5.945H15.68v11.57zM9.254 9.159v5.142a.643.643 0 11-1.286 0V9.16a.643.643 0 011.286 0zm3.856 0v5.142a.643.643 0 11-1.285 0V9.16a.643.643 0 111.285 0z" fill="#57585A"/></svg>