<svg width="34" height="20" fill="none" xmlns="http://www.w3.org/2000/svg"><path fill-rule="evenodd" clip-rule="evenodd" d="M33.147 1.491C33.393.743 33.147.2 32.055.2h-3.627c-.915 0-1.338.475-1.584.985 0 0-1.866 4.352-4.472 7.174-.845.816-1.232 1.088-1.69 1.088-.247 0-.563-.272-.563-1.02v-6.97c0-.884-.282-1.291-1.057-1.291h-5.704c-.563 0-.915.407-.915.815 0 .85 1.302 1.054 1.443 3.434v5.168c0 1.122-.211 1.326-.669 1.326-1.232 0-4.225-4.386-6.021-9.384C6.844.54 6.492.165 5.576.165H1.914C.858.166.682.642.682 1.152c0 .918 1.232 5.542 5.74 11.661 2.992 4.182 7.253 6.426 11.09 6.426 2.325 0 2.607-.51 2.607-1.36v-3.162c0-1.02.21-1.19.95-1.19.528 0 1.48.272 3.627 2.278 2.465 2.38 2.887 3.468 4.26 3.468h3.627c1.057 0 1.55-.51 1.268-1.496-.317-.986-1.514-2.414-3.063-4.114-.846-.952-2.113-2.005-2.5-2.515-.529-.68-.388-.952 0-1.564-.036 0 4.4-6.052 4.859-8.092z" fill="#fff"/></svg>