<svg width="27" height="19" fill="none" xmlns="http://www.w3.org/2000/svg"><path d="M26.396 3.139A3.318 3.318 0 0024.044.806C21.968.255 13.647.255 13.647.255s-8.321 0-10.396.551A3.318 3.318 0 00.898 3.14C.342 5.196.342 9.489.342 9.489s0 4.291.556 6.349a3.319 3.319 0 002.353 2.332c2.075.552 10.396.552 10.396.552s8.321 0 10.397-.552a3.319 3.319 0 002.352-2.332c.556-2.057.556-6.35.556-6.35s0-4.292-.556-6.35z" fill="#fff"/><path d="M11.154 13.905v-8.03l6.653 4.015-6.653 4.014z" fill="#F47723"/></svg>