<svg width="17" height="16" fill="none" xmlns="http://www.w3.org/2000/svg"><path fill-rule="evenodd" clip-rule="evenodd" d="M8.242 1.879h-.436v-.002c-1.441.001-1.718.01-2.431.042-.754.033-1.164.155-1.436.257a2.41 2.41 0 00-.89.56c-.27.26-.438.51-.578.858-.106.263-.232.658-.267 1.386-.037.787-.044 1.022-.044 3.016s.007 2.23.044 3.018c.035.728.16 1.123.267 1.386.14.348.308.597.578.858.271.261.529.423.89.559.273.102.682.223 1.436.257.815.036 1.06.043 3.125.043s2.31-.007 3.125-.043c.754-.033 1.163-.155 1.435-.257a2.42 2.42 0 00.89-.559c.27-.26.438-.509.578-.857.106-.263.232-.659.266-1.386.037-.788.045-1.024.045-3.017 0-1.992-.008-2.229-.045-3.016-.034-.728-.16-1.123-.266-1.386a2.312 2.312 0 00-.579-.859 2.402 2.402 0 00-.889-.558c-.272-.102-.681-.224-1.435-.257-.816-.036-1.06-.043-3.125-.043h-.258zM11.7 4.014c0-.495.415-.895.928-.895.512 0 .928.4.928.895s-.416.896-.928.896c-.513 0-.928-.401-.928-.896zm-3.2.151C6.306 4.165 4.528 5.882 4.528 8c0 2.117 1.778 3.834 3.972 3.834 2.193 0 3.97-1.716 3.97-3.834 0-2.118-1.777-3.835-3.97-3.835z" fill="#fff"/><path fill-rule="evenodd" clip-rule="evenodd" d="M8.5.533c-2.1 0-2.364.01-3.19.045-.822.037-1.384.163-1.876.347-.509.19-.94.446-1.37.861a3.67 3.67 0 00-.893 1.323C.98 3.584.85 4.126.812 4.92.775 5.717.766 5.972.766 8s.009 2.281.046 3.078c.038.795.169 1.337.36 1.812.197.491.462.908.892 1.323.43.415.86.671 1.369.862.492.184 1.054.31 1.877.347.825.036 1.089.045 3.189.045s2.363-.01 3.188-.045c.823-.037 1.386-.163 1.878-.347a3.8 3.8 0 001.369-.862c.43-.415.694-.832.892-1.323.19-.475.32-1.017.36-1.812.037-.796.046-1.05.046-3.078 0-2.028-.01-2.282-.046-3.079-.04-.795-.17-1.337-.36-1.812a3.654 3.654 0 00-.892-1.323c-.43-.415-.86-.67-1.37-.86C13.071.74 12.51.614 11.686.577 10.86.542 10.598.533 8.497.533H8.5zM7.806 1.88H8.5c2.065 0 2.31.007 3.125.043.754.033 1.163.155 1.435.257.361.135.619.297.89.558.27.262.437.51.578.859.106.263.232.658.266 1.386.037.787.045 1.024.045 3.016 0 1.993-.008 2.23-.045 3.016-.034.729-.16 1.124-.266 1.386-.14.349-.308.597-.579.858a2.39 2.39 0 01-.889.559c-.272.102-.681.224-1.435.257-.816.036-1.06.043-3.125.043s-2.31-.007-3.125-.043c-.754-.034-1.163-.155-1.436-.258a2.405 2.405 0 01-.89-.558 2.308 2.308 0 01-.578-.858c-.106-.263-.232-.658-.267-1.386-.037-.787-.044-1.024-.044-3.018 0-1.994.007-2.229.044-3.016.035-.728.16-1.123.267-1.386.14-.349.308-.598.578-.859a2.41 2.41 0 01.89-.559c.272-.102.682-.224 1.436-.257.713-.031.99-.04 2.43-.042v.002z" fill="#fff"/><path fill-rule="evenodd" clip-rule="evenodd" d="M4.528 8c0-2.118 1.778-3.834 3.972-3.835 2.193 0 3.97 1.717 3.97 3.835 0 2.117-1.777 3.834-3.97 3.834-2.194 0-3.972-1.716-3.972-3.834zm6.55 0c0-1.375-1.155-2.489-2.578-2.489-1.424 0-2.578 1.114-2.578 2.489 0 1.374 1.154 2.489 2.578 2.489 1.423 0 2.578-1.115 2.578-2.49z" fill="#fff"/></svg>