<svg width="289" height="44" fill="none" xmlns="http://www.w3.org/2000/svg"><path d="M0 8.484V.43h32.247v8.053H20.944v25.882H11.25V8.484H0zm42.17 3.403c1.286-1.31 2.68-2.19 4.179-2.636a13.857 13.857 0 014.714-.624c1.857 0 3.535.336 5.035 1.007 1.5.671 2.768 1.598 3.803 2.78 1.036 1.15 1.821 2.508 2.357 4.074.536 1.566.804 3.227.804 4.985 0 1.917-.268 3.706-.804 5.368-.536 1.63-1.339 3.051-2.41 4.266-1.072 1.182-2.41 2.109-4.018 2.78-1.571.639-3.374.926-5.41.862-2.178-.064-3.875-.351-5.089-.862-1.214-.511-2.196-1.07-2.946-1.678V44h-9.481V9.107h8.785l.482 2.78zm5.893 4.457c-.964 0-1.803.16-2.518.48a5.38 5.38 0 00-1.767 1.198 5.004 5.004 0 00-1.072 1.677 5.577 5.577 0 00-.32 1.87c0 .703.106 1.39.32 2.06.215.64.572 1.215 1.072 1.726.5.48 1.125.879 1.875 1.198.75.32 1.642.48 2.678.48 1.071 0 1.946-.16 2.625-.48.714-.351 1.267-.783 1.66-1.294a4.017 4.017 0 00.857-1.725 7.27 7.27 0 00.268-1.965c0-.575-.107-1.167-.321-1.774a4.276 4.276 0 00-.965-1.677c-.428-.512-1-.927-1.714-1.246-.714-.352-1.607-.528-2.678-.528zm35.879 15.194c-.785.767-1.589 1.374-2.41 1.821a11.43 11.43 0 01-2.464.96c-.822.223-1.59.35-2.303.383-.715.032-1.25.047-1.608.047a12.89 12.89 0 01-3.481-.479 8.59 8.59 0 01-2.946-1.486 7.89 7.89 0 01-2.09-2.492c-.535-1.023-.803-2.253-.803-3.69 0-1.47.41-2.749 1.232-3.835.857-1.087 1.875-1.901 3.053-2.445a12.76 12.76 0 012.732-.862c1-.224 2-.368 3-.432a52.214 52.214 0 013.214-.095h4.607c-.036-.895-.411-1.646-1.125-2.253-.679-.64-1.643-.959-2.893-.959-.928 0-1.785.176-2.571.527-.75.352-1.178.8-1.286 1.342h-9.427c.214-1.565.732-2.907 1.553-4.026a9.659 9.659 0 013.053-2.78 14.026 14.026 0 014.018-1.63 19.44 19.44 0 014.553-.527c1.893 0 3.535.176 4.928.528 1.428.351 2.66.878 3.696 1.581 3 1.95 4.5 5.305 4.5 10.066v13.564h-8.732v-2.828zm-5.41-7.381c-1.035 0-1.857.16-2.464.48-.571.319-.857.846-.857 1.58 0 .64.268 1.151.804 1.535.571.351 1.32.527 2.25.527.75 0 1.446-.112 2.088-.336.679-.223 1.25-.527 1.715-.91.5-.416.892-.863 1.178-1.342.321-.48.5-.99.536-1.534h-5.25zm28.614-6.231h8.303v-8.82h9.481v25.26h-9.481v-8.82h-8.303v8.82h-9.481V9.106h9.481v8.82zm35.918 9.107c1.143 0 2.071-.24 2.785-.72.75-.51 1.215-1.197 1.393-2.06h9.428c-.072 1.725-.482 3.243-1.232 4.553a10.025 10.025 0 01-2.893 3.307c-1.214.863-2.625 1.518-4.232 1.965a18.685 18.685 0 01-5.035.671c-2.214 0-4.214-.287-5.999-.862-1.786-.575-3.303-1.422-4.553-2.54-1.214-1.119-2.161-2.477-2.839-4.075-.679-1.63-1.018-3.483-1.018-5.56 0-2.045.339-3.882 1.018-5.512.714-1.661 1.696-3.051 2.946-4.17 1.285-1.118 2.821-1.965 4.607-2.54 1.785-.607 3.803-.91 6.052-.91 1.786 0 3.447.24 4.982.718 1.571.448 2.928 1.135 4.071 2.062a9.398 9.398 0 012.678 3.307c.679 1.31 1.054 2.812 1.125 4.505h-9.106c-.214-.927-.696-1.63-1.446-2.109-.714-.48-1.589-.719-2.625-.719-.964 0-1.785.176-2.464.527a4.396 4.396 0 00-1.553 1.39 5.316 5.316 0 00-.75 1.774 11.312 11.312 0 00-.161 1.87c0 .638.089 1.261.268 1.868.178.608.446 1.15.803 1.63.393.48.893.879 1.5 1.198.643.288 1.393.432 2.25.432zm26.32-9.73c0 1.086.161 2.189.482 3.307a9.214 9.214 0 001.5 2.972c.714.862 1.643 1.581 2.786 2.157 1.142.543 2.535.814 4.178.814 2.107 0 3.803-.415 5.089-1.246 1.285-.83 2.124-2.013 2.517-3.547h9.374c-.178 2.141-.768 4.026-1.767 5.656a13.46 13.46 0 01-3.857 4.074c-1.536 1.087-3.303 1.901-5.303 2.445a23.008 23.008 0 01-6.16.814c-2.929 0-5.571-.399-7.928-1.198-2.321-.799-4.303-1.949-5.946-3.45-1.607-1.503-2.839-3.324-3.696-5.465-.857-2.173-1.286-4.601-1.286-7.285 0-2.652.447-5.049 1.339-7.19.893-2.14 2.161-3.962 3.804-5.464 1.642-1.502 3.624-2.652 5.946-3.45C172.777.414 175.348 0 178.169 0c2.178 0 4.232.272 6.16.815 1.964.543 3.678 1.358 5.143 2.444a12.291 12.291 0 013.642 4.026c.964 1.63 1.553 3.547 1.768 5.752h-9.16c-.429-1.534-1.25-2.716-2.464-3.547-1.179-.863-2.839-1.294-4.982-1.294-1.643 0-3.035.272-4.178.815-1.143.511-2.071 1.198-2.785 2.06a8.635 8.635 0 00-1.5 2.925 12.939 12.939 0 00-.429 3.307zm39.401 3.834l10.982-12.03h7.82v25.259h-9.481V22.815l-10.553 11.551h-8.249V9.106h9.481v12.031zm21.752-4.457V9.107h27.212v7.573h-8.946v17.686h-9.427V16.68h-8.839zm39.661 4.457l10.981-12.03H289v25.259h-9.481V22.815l-10.553 11.551h-8.249V9.106h9.481v12.031z" fill="#4148E7"/></svg>