<svg width="19" height="20" fill="none" xmlns="http://www.w3.org/2000/svg"><path d="M11.088 12.607a2.887 2.887 0 01-1.588.474 2.887 2.887 0 01-1.588-.474L.127 7.5A2.834 2.834 0 010 7.412v8.368c0 .96.791 1.72 1.75 1.72h15.5c.976 0 1.75-.778 1.75-1.72V7.412c-.041.03-.084.06-.127.089l-7.785 5.106z" fill="#fff"/><path d="M.744 6.588l7.786 5.107a1.767 1.767 0 001.94 0l7.786-5.107c.466-.305.744-.816.744-1.368 0-.948-.784-1.72-1.748-1.72H1.748C.784 3.5 0 4.272 0 5.221c0 .55.278 1.062.744 1.367z" fill="#fff"/></svg>