<svg width="31" height="31" fill="none" xmlns="http://www.w3.org/2000/svg"><rect width="31" height="31" rx="12" fill="#33B2E2"/><path d="M15.5 28.336c7.09 0 12.836-5.747 12.836-12.836 0-7.09-5.747-12.836-12.836-12.836-7.09 0-12.836 5.747-12.836 12.836 0 7.09 5.747 12.836 12.836 12.836z" fill="url(#paint0_linear_229_1164)"/><path d="M21.747 10.05l-2.29 11.558s-.322.802-1.204.416l-5.29-4.056-1.925-.928-3.24-1.088s-.496-.176-.546-.562c-.05-.386.562-.591.562-.591l12.876-5.05c0-.004 1.057-.47 1.057.301z" fill="#fff"/><path d="M12.551 21.477s-.155-.015-.346-.622c-.19-.606-1.168-3.815-1.168-3.815l7.777-4.94s.451-.27.431 0c0 0 .08.05-.16.272-.241.225-6.108 5.5-6.108 5.5" fill="#D2E4F0"/><path d="M14.988 19.522l-2.09 1.91s-.166.126-.341.046l.4-3.545" fill="#B5CFE4"/><defs><linearGradient id="paint0_linear_229_1164" x1="15.5" y1="2.664" x2="15.5" y2="28.242" gradientUnits="userSpaceOnUse"><stop stop-color="#41BCE7"/><stop offset="1" stop-color="#22A6DC"/></linearGradient></defs></svg>