<svg width="34" height="20" fill="none" xmlns="http://www.w3.org/2000/svg"><path fill-rule="evenodd" clip-rule="evenodd" d="M33.147 1.491C33.393.743 33.147.2 32.055.2h-3.627c-.915 0-1.338.475-1.584.985 0 0-1.867 4.352-4.472 7.174-.845.816-1.233 1.088-1.69 1.088-.247 0-.564-.272-.564-1.02v-6.97c0-.884-.281-1.291-1.056-1.291h-5.704c-.564 0-.916.407-.916.815 0 .85 1.303 1.054 1.444 3.434v5.168c0 1.122-.211 1.326-.67 1.326-1.231 0-4.224-4.386-6.02-9.384C6.844.54 6.492.165 5.576.165H1.914C.858.166.682.642.682 1.152c0 .918 1.232 5.542 5.74 11.661 2.992 4.182 7.253 6.426 11.09 6.426 2.325 0 2.606-.51 2.606-1.36v-3.162c0-1.02.212-1.19.951-1.19.528 0 1.479.272 3.627 2.278 2.464 2.38 2.887 3.468 4.26 3.468h3.627c1.056 0 1.55-.51 1.268-1.496-.317-.986-1.514-2.414-3.064-4.114-.845-.952-2.112-2.005-2.5-2.515-.528-.68-.387-.952 0-1.564-.035 0 4.402-6.052 4.86-8.092z" fill="#fff"/></svg>