<svg width="21" height="12" fill="none" xmlns="http://www.w3.org/2000/svg"><path fill-rule="evenodd" clip-rule="evenodd" d="M19.681 1.585c.143-.435 0-.75-.634-.75h-2.108c-.533 0-.778.276-.921.572 0 0-1.085 2.53-2.6 4.17-.49.474-.716.632-.982.632-.143 0-.327-.158-.327-.593v-4.05c0-.514-.164-.752-.614-.752H8.179c-.327 0-.532.238-.532.475 0 .494.757.612.84 1.995v3.004c0 .652-.124.77-.39.77-.716 0-2.456-2.548-3.5-5.453-.204-.573-.409-.79-.94-.79h-2.13c-.613 0-.715.276-.715.572 0 .534.716 3.221 3.335 6.778 1.74 2.43 4.216 3.735 6.447 3.735 1.35 0 1.515-.297 1.515-.79V9.271c0-.593.122-.692.552-.692.307 0 .86.158 2.108 1.324 1.433 1.383 1.678 2.016 2.476 2.016h2.108c.614 0 .901-.297.737-.87-.184-.573-.88-1.403-1.78-2.39-.491-.554-1.228-1.167-1.453-1.463-.307-.395-.225-.553 0-.909-.02 0 2.558-3.517 2.824-4.703z" fill="#fff"/></svg>