<svg width="31" height="31" fill="none" xmlns="http://www.w3.org/2000/svg"><rect width="31" height="31" rx="12" fill="#25D366"/><path fill-rule="evenodd" clip-rule="evenodd" d="M23.478 7.557a10.133 10.133 0 00-7.208-2.989c-5.614 0-10.186 4.57-10.186 10.187 0 1.795.468 3.55 1.36 5.093L6 25.128l5.4-1.417a10.16 10.16 0 004.867 1.24h.003c5.614 0 10.184-4.57 10.187-10.187a10.11 10.11 0 00-2.98-7.207zM16.273 23.23h-.003a8.449 8.449 0 01-4.309-1.18l-.31-.184-3.205.84.856-3.124-.202-.32a8.464 8.464 0 01-1.296-4.507c.003-4.669 3.8-8.466 8.472-8.466 2.264 0 4.387.883 5.987 2.483 1.6 1.6 2.48 3.73 2.476 5.99 0 4.67-3.8 8.468-8.466 8.468zm4.644-6.342c-.254-.127-1.506-.744-1.739-.828-.232-.084-.403-.127-.573.127-.17.254-.658.828-.806.998-.15.17-.298.193-.552.066-.254-.128-1.076-.397-2.046-1.265-.757-.676-1.268-1.51-1.417-1.764-.149-.254-.015-.394.112-.521.114-.115.254-.298.381-.446.127-.15.17-.255.254-.425.084-.17.044-.32-.022-.447-.065-.127-.573-1.379-.784-1.89-.207-.497-.415-.428-.573-.438a12.52 12.52 0 00-.487-.009.937.937 0 00-.679.32c-.232.254-.89.87-.89 2.123 0 1.252.912 2.464 1.039 2.632.127.17 1.795 2.74 4.35 3.844.607.263 1.081.418 1.45.536.61.195 1.166.168 1.603.102.49-.074 1.506-.617 1.717-1.209.21-.595.21-1.103.149-1.209-.062-.105-.233-.167-.487-.297z" fill="#fff"/></svg>