<svg width="800" height="348" viewBox="0 0 800 348" fill="none" xmlns="http://www.w3.org/2000/svg">
<mask id="path-1-inside-1_252_5297" fill="white">
<path fill-rule="evenodd" clip-rule="evenodd" d="M0 12C0 5.37259 5.37258 0 12 0H788C794.627 0 800 5.37258 800 12V181.008C799.667 181.003 799.334 181 799 181C771.938 181 750 198.685 750 220.5C750 242.315 771.938 260 799 260C799.334 260 799.667 259.997 800 259.992V336C800 342.627 794.627 348 788 348H12C5.37257 348 0 342.627 0 336V259.707C24.2316 257.322 43 240.678 43 220.5C43 200.322 24.2316 183.678 0 181.293V12Z"/>
</mask>
<path fill-rule="evenodd" clip-rule="evenodd" d="M0 12C0 5.37259 5.37258 0 12 0H788C794.627 0 800 5.37258 800 12V181.008C799.667 181.003 799.334 181 799 181C771.938 181 750 198.685 750 220.5C750 242.315 771.938 260 799 260C799.334 260 799.667 259.997 800 259.992V336C800 342.627 794.627 348 788 348H12C5.37257 348 0 342.627 0 336V259.707C24.2316 257.322 43 240.678 43 220.5C43 200.322 24.2316 183.678 0 181.293V12Z" fill="white"/>
<path d="M800 181.008L799.984 182.008L801 182.024V181.008H800ZM800 259.992H801V258.976L799.984 258.992L800 259.992ZM0 259.707L-0.0979471 258.712L-1 258.8V259.707H0ZM0 181.293H-1V182.2L-0.0979478 182.288L0 181.293ZM12 -1C4.8203 -1 -1 4.82031 -1 12H1C1 5.92487 5.92487 1 12 1V-1ZM788 -1H12V1H788V-1ZM801 12C801 4.8203 795.18 -1 788 -1V1C794.075 1 799 5.92486 799 12H801ZM801 181.008V12H799V181.008H801ZM799 182C799.329 182 799.657 182.003 799.984 182.008L800.016 180.008C799.678 180.003 799.339 180 799 180V182ZM751 220.5C751 199.428 772.278 182 799 182V180C771.598 180 749 197.942 749 220.5H751ZM799 259C772.278 259 751 241.572 751 220.5H749C749 243.058 771.598 261 799 261V259ZM799.984 258.992C799.657 258.997 799.329 259 799 259V261C799.339 261 799.678 260.997 800.016 260.992L799.984 258.992ZM801 336V259.992H799V336H801ZM788 349C795.18 349 801 343.18 801 336H799C799 342.075 794.075 347 788 347V349ZM12 349H788V347H12V349ZM-1 336C-1 343.18 4.82029 349 12 349V347C5.92486 347 1 342.075 1 336H-1ZM-1 259.707V336H1V259.707H-1ZM42 220.5C42 239.995 23.8091 256.359 -0.0979471 258.712L0.0979471 260.702C24.6542 258.285 44 241.361 44 220.5H42ZM-0.0979478 182.288C23.8091 184.641 42 201.005 42 220.5H44C44 199.639 24.6541 182.715 0.0979478 180.298L-0.0979478 182.288ZM-1 12V181.293H1V12H-1Z" fill="url(#paint0_linear_252_5297)" mask="url(#path-1-inside-1_252_5297)"/>
<defs>
<linearGradient id="paint0_linear_252_5297" x1="400" y1="0" x2="400" y2="348" gradientUnits="userSpaceOnUse">
<stop stop-opacity="0"/>
<stop offset="1" stop-color="#199FD8" stop-opacity="0.35"/>
</linearGradient>
</defs>
</svg>
