<svg width="358" height="568" viewBox="0 0 358 568" fill="none" xmlns="http://www.w3.org/2000/svg">
<mask id="path-1-inside-1_203_9684" fill="white">
<path fill-rule="evenodd" clip-rule="evenodd" d="M0 12C0 5.37258 5.37258 0 12 0H346C352.627 0 358 5.37258 358 12L358 362.064C345.944 362.064 336.171 371.771 336.171 383.744C336.171 395.718 345.944 405.425 358 405.425L358 556C358 562.627 352.627 568 346 568H12C5.37259 568 0 562.627 0 556V405.318C11.031 404.23 19.6463 394.986 19.6463 383.744C19.6463 372.502 11.031 363.259 0 362.171V12Z"/>
</mask>
<path fill-rule="evenodd" clip-rule="evenodd" d="M0 12C0 5.37258 5.37258 0 12 0H346C352.627 0 358 5.37258 358 12L358 362.064C345.944 362.064 336.171 371.771 336.171 383.744C336.171 395.718 345.944 405.425 358 405.425L358 556C358 562.627 352.627 568 346 568H12C5.37259 568 0 562.627 0 556V405.318C11.031 404.23 19.6463 394.986 19.6463 383.744C19.6463 372.502 11.031 363.259 0 362.171V12Z" fill="white"/>
<path d="M358 12H359H358ZM358 362.064V363.064H359V362.064H358ZM358 405.425H359V404.425H358V405.425ZM358 556H359H358ZM0 405.318L-0.0981339 404.323L-1 404.411V405.318H0ZM0 362.171H-1V363.077L-0.0981339 363.166L0 362.171ZM12 -1C4.8203 -1 -1 4.82029 -1 12H1C1 5.92486 5.92487 1 12 1V-1ZM346 -1H12V1H346V-1ZM359 12C359 4.8203 353.18 -1 346 -1V1C352.075 1 357 5.92487 357 12H359ZM359 362.064L359 12H357L357 362.064H359ZM337.171 383.744C337.171 372.329 346.49 363.064 358 363.064V361.064C345.398 361.064 335.171 371.212 335.171 383.744H337.171ZM358 404.425C346.49 404.425 337.171 395.159 337.171 383.744H335.171C335.171 396.277 345.398 406.425 358 406.425V404.425ZM359 556L359 405.425H357L357 556H359ZM346 569C353.18 569 359 563.18 359 556H357C357 562.075 352.075 567 346 567V569ZM12 569H346V567H12V569ZM-1 556C-1 563.18 4.8203 569 12 569V567C5.92487 567 1 562.075 1 556H-1ZM-1 405.318V556H1V405.318H-1ZM18.6463 383.744C18.6463 394.461 10.4317 403.284 -0.0981339 404.323L0.0981339 406.313C11.6303 405.176 20.6463 395.511 20.6463 383.744H18.6463ZM-0.0981339 363.166C10.4317 364.204 18.6463 373.027 18.6463 383.744H20.6463C20.6463 371.977 11.6303 362.313 0.0981339 361.176L-0.0981339 363.166ZM-1 12V362.171H1V12H-1Z" fill="url(#paint0_linear_203_9684)" mask="url(#path-1-inside-1_203_9684)"/>
<defs>
<linearGradient id="paint0_linear_203_9684" x1="179" y1="0" x2="179" y2="568" gradientUnits="userSpaceOnUse">
<stop stop-opacity="0"/>
<stop offset="1" stop-color="#199FD8" stop-opacity="0.35"/>
</linearGradient>
</defs>
</svg>
