<svg width="800" height="642" viewBox="0 0 800 642" fill="none" xmlns="http://www.w3.org/2000/svg">
<mask id="path-1-inside-1_252_5393" fill="white">
<path fill-rule="evenodd" clip-rule="evenodd" d="M0 12C0 5.37259 5.37258 0 12 0H788C794.627 0 800 5.37258 800 12V348.039C799.337 348.013 798.67 348 798 348C770.938 348 749 369.49 749 396C749 422.51 770.938 444 798 444C798.67 444 799.337 443.987 800 443.961V630C800 636.627 794.627 642 788 642H12C5.37257 642 0 636.627 0 630V443.514C23.7461 440.187 42 420.182 42 396C42 371.818 23.7461 351.813 0 348.486V12Z"/>
</mask>
<path fill-rule="evenodd" clip-rule="evenodd" d="M0 12C0 5.37259 5.37258 0 12 0H788C794.627 0 800 5.37258 800 12V348.039C799.337 348.013 798.67 348 798 348C770.938 348 749 369.49 749 396C749 422.51 770.938 444 798 444C798.67 444 799.337 443.987 800 443.961V630C800 636.627 794.627 642 788 642H12C5.37257 642 0 636.627 0 630V443.514C23.7461 440.187 42 420.182 42 396C42 371.818 23.7461 351.813 0 348.486V12Z" fill="white"/>
<path d="M800 348.039L799.961 349.038L801 349.079V348.039H800ZM800 443.961H801V442.921L799.961 442.962L800 443.961ZM0 443.514L-0.138765 442.524L-1 442.644V443.514H0ZM0 348.486H-1V349.356L-0.138765 349.476L0 348.486ZM12 -1C4.8203 -1 -1 4.8203 -1 12H1C1 5.92487 5.92487 1 12 1V-1ZM788 -1H12V1H788V-1ZM801 12C801 4.8203 795.18 -1 788 -1V1C794.075 1 799 5.92486 799 12H801ZM801 348.039V12H799V348.039H801ZM798 349C798.657 349 799.31 349.013 799.961 349.038L800.039 347.04C799.363 347.013 798.683 347 798 347V349ZM750 396C750 370.062 771.471 349 798 349V347C770.405 347 748 368.919 748 396H750ZM798 443C771.471 443 750 421.938 750 396H748C748 423.081 770.405 445 798 445V443ZM799.961 442.962C799.31 442.987 798.657 443 798 443V445C798.683 445 799.363 444.987 800.039 444.96L799.961 442.962ZM801 630V443.961H799V630H801ZM788 643C795.18 643 801 637.18 801 630H799C799 636.075 794.075 641 788 641V643ZM12 643H788V641H12V643ZM-1 630C-1 637.18 4.82028 643 12 643V641C5.92486 641 1 636.075 1 630H-1ZM-1 443.514V630H1V443.514H-1ZM41 396C41 419.66 23.136 439.262 -0.138765 442.524L0.138765 444.504C24.3561 441.111 43 420.703 43 396H41ZM-0.138765 349.476C23.136 352.738 41 372.34 41 396H43C43 371.297 24.3561 350.889 0.138765 347.496L-0.138765 349.476ZM-1 12V348.486H1V12H-1Z" fill="url(#paint0_linear_252_5393)" mask="url(#path-1-inside-1_252_5393)"/>
<defs>
<linearGradient id="paint0_linear_252_5393" x1="400" y1="0" x2="400" y2="642" gradientUnits="userSpaceOnUse">
<stop stop-opacity="0"/>
<stop offset="1" stop-color="#199FD8" stop-opacity="0.35"/>
</linearGradient>
</defs>
</svg>
