<svg width="358" height="533" viewBox="0 0 358 533" fill="none" xmlns="http://www.w3.org/2000/svg">
<mask id="path-1-inside-1_202_6935" fill="white">
<path fill-rule="evenodd" clip-rule="evenodd" d="M0 12C0 5.37257 5.37258 0 12 0H346C352.627 0 358 5.37258 358 12L358 339.754C345.944 339.754 336.171 348.862 336.171 360.098C336.171 371.334 345.944 380.443 358 380.443L358 521C358 527.627 352.627 533 346 533H12C5.37259 533 0 527.627 0 521V380.342C11.031 379.321 19.6463 370.647 19.6463 360.098C19.6463 349.549 11.031 340.875 0 339.854V12Z"/>
</mask>
<path fill-rule="evenodd" clip-rule="evenodd" d="M0 12C0 5.37257 5.37258 0 12 0H346C352.627 0 358 5.37258 358 12L358 339.754C345.944 339.754 336.171 348.862 336.171 360.098C336.171 371.334 345.944 380.443 358 380.443L358 521C358 527.627 352.627 533 346 533H12C5.37259 533 0 527.627 0 521V380.342C11.031 379.321 19.6463 370.647 19.6463 360.098C19.6463 349.549 11.031 340.875 0 339.854V12Z" fill="white"/>
<path d="M358 12H357V12L358 12ZM358 339.754V340.754H359V339.754H358ZM358 380.443H359V379.443H358V380.443ZM358 521H357H358ZM0 380.342L-0.092141 379.346L-1 379.43V380.342H0ZM0 339.854H-1V340.766L-0.092141 340.85L0 339.854ZM12 -1C4.8203 -1 -1 4.82028 -1 12H1C1 5.92486 5.92487 1 12 1V-1ZM346 -1H12V1H346V-1ZM359 12C359 4.8203 353.18 -1 346 -1V1C352.075 1 357 5.92487 357 12H359ZM359 339.754L359 12L357 12L357 339.754H359ZM337.171 360.098C337.171 349.48 346.429 340.754 358 340.754V338.754C345.459 338.754 335.171 348.245 335.171 360.098H337.171ZM358 379.443C346.429 379.443 337.171 370.717 337.171 360.098H335.171C335.171 371.952 345.459 381.443 358 381.443V379.443ZM359 521L359 380.443H357L357 521H359ZM346 534C353.18 534 359 528.18 359 521H357C357 527.075 352.075 532 346 532V534ZM12 534H346V532H12V534ZM-1 521C-1 528.18 4.8203 534 12 534V532C5.92487 532 1 527.075 1 521H-1ZM-1 380.342V521H1V380.342H-1ZM18.6463 360.098C18.6463 370.07 10.4879 378.367 -0.092141 379.346L0.092141 381.338C11.5741 380.275 20.6463 371.225 20.6463 360.098H18.6463ZM-0.092141 340.85C10.4879 341.829 18.6463 350.127 18.6463 360.098H20.6463C20.6463 348.971 11.5741 339.921 0.092141 338.858L-0.092141 340.85ZM-1 12V339.854H1V12H-1Z" fill="url(#paint0_linear_202_6935)" mask="url(#path-1-inside-1_202_6935)"/>
<defs>
<linearGradient id="paint0_linear_202_6935" x1="179" y1="0" x2="179" y2="533" gradientUnits="userSpaceOnUse">
<stop stop-opacity="0"/>
<stop offset="1" stop-color="#199FD8" stop-opacity="0.35"/>
</linearGradient>
</defs>
</svg>
